<svg width="186" height="53" viewBox="0 0 186 53" fill="none" xmlns="http://www.w3.org/2000/svg">
<path d="M58.9426 28.4334V12.237H66.3466C68.4059 12.237 69.9793 12.7923 71.0667 13.8798C71.9922 14.8053 72.455 16.0316 72.455 17.5818V17.6281C72.455 20.2427 71.0436 21.8854 68.9843 22.649L72.9409 28.4334H68.7761L65.3055 23.2506H62.5058V28.4334H58.9426ZM62.5058 20.1038H66.1153C67.8737 20.1038 68.8455 19.2015 68.8455 17.8132V17.7669C68.8455 16.2167 67.8043 15.4532 66.0459 15.4532H62.5058V20.1038ZM77.1903 28.6648C74.8534 28.6648 72.9329 27.3459 72.9329 24.8702V24.8239C72.9329 22.14 74.9922 20.8674 77.9307 20.8674C79.2032 20.8674 80.0593 21.0756 80.9617 21.3764V21.1682C80.9617 19.6874 80.0593 18.9007 78.3009 18.9007C76.9357 18.9007 76.0102 19.1321 74.8765 19.5717L73.9973 16.8877C75.3624 16.3093 76.7044 15.8928 78.8099 15.8928C80.7535 15.8928 82.0954 16.3787 82.9978 17.281C83.9233 18.2066 84.3398 19.5717 84.3398 21.2376V28.4334H80.9386V27.0914C80.0825 28.0401 78.9256 28.6648 77.1903 28.6648ZM78.2546 26.2353C79.9205 26.2353 81.008 25.3561 81.008 24.0604V23.4357C80.3833 23.158 79.6197 22.9729 78.7636 22.9729C77.2597 22.9729 76.3342 23.5745 76.3342 24.6851V24.7314C76.3342 25.68 77.1208 26.2353 78.2546 26.2353ZM90.8368 28.6648C87.9446 28.6648 85.1912 26.3973 85.1912 22.2557V22.2094C85.1912 18.0677 87.8983 15.8002 90.8368 15.8002C92.7109 15.8002 93.8678 16.6563 94.7008 17.6513V11.5429H98.2177V28.4334H94.7008V26.6518C93.8447 27.8318 92.6878 28.6648 90.8368 28.6648ZM91.7392 25.68C93.3819 25.68 94.7471 24.3149 94.7471 22.2557V22.2094C94.7471 20.1501 93.3819 18.785 91.7392 18.785C90.0964 18.785 88.7081 20.127 88.7081 22.2094V22.2557C88.7081 24.3149 90.0964 25.68 91.7392 25.68ZM99.8097 14.6665V11.5429H103.512V14.6665H99.8097ZM99.9022 28.4334V16.0316H103.419V28.4334H99.9022ZM107.995 16.0316L110.309 19.6642L112.646 16.0316H116.324L112.136 22.0937L116.509 28.4334H112.738L110.239 24.5694L107.74 28.4334H104.061L108.411 22.14L104.223 16.0316H107.995Z" fill="white"/>
<path d="M58.8088 41.4589V36.0921H61.0936C61.7069 36.0921 62.19 36.2684 62.4966 36.5674C62.7266 36.8051 62.8416 37.0964 62.8416 37.4261V37.4414C62.8416 38.1391 62.4123 38.4995 61.9906 38.6835C62.627 38.8675 63.1407 39.2508 63.1407 39.9792V39.9945C63.1407 40.9146 62.3663 41.4589 61.1932 41.4589H58.8088ZM62.2283 37.5258V37.5105C62.2283 36.9814 61.8066 36.6364 61.0399 36.6364H59.4069V38.4842H60.9939C61.7299 38.4842 62.2283 38.1621 62.2283 37.5258ZM62.5273 39.9562V39.9409C62.5273 39.3582 62.0443 39.0208 61.1012 39.0208H59.4069V40.9146H61.2086C62.0289 40.9146 62.5273 40.5619 62.5273 39.9562ZM65.4017 40.7996L66.6744 37.4951H67.3031L65.6394 41.5893C65.3021 42.4096 64.9111 42.7086 64.3207 42.7086C63.991 42.7086 63.7457 42.6396 63.4773 42.5093L63.6767 42.0416C63.8684 42.1413 64.0447 42.1873 64.2977 42.1873C64.658 42.1873 64.8727 42.0033 65.1104 41.4436L63.3087 37.4951H63.9604L65.4017 40.7996ZM71.5554 41.5356C70.6967 41.5356 70.0067 41.2596 69.3627 40.6769L69.7383 40.2322C70.298 40.7459 70.8347 40.9912 71.5784 40.9912C72.3068 40.9912 72.7745 40.6079 72.7745 40.0789V40.0635C72.7745 39.5652 72.5061 39.2892 71.3791 39.0438C70.1447 38.7755 69.5773 38.3768 69.5773 37.4951V37.4798C69.5773 36.6441 70.321 36.0154 71.3407 36.0154C72.1304 36.0154 72.6748 36.2377 73.2268 36.6748L72.8741 37.1424C72.3758 36.7361 71.8774 36.5598 71.3254 36.5598C70.62 36.5598 70.183 36.9354 70.183 37.4261V37.4414C70.183 37.9475 70.4514 38.2388 71.6397 38.4842C72.8358 38.7525 73.3878 39.1818 73.3878 40.0022V40.0175C73.3878 40.9376 72.6211 41.5356 71.5554 41.5356ZM75.8692 41.5509C74.6808 41.5509 73.8145 40.6156 73.8145 39.4962V39.4809C73.8145 38.3538 74.6808 37.4108 75.8845 37.4108C77.0806 37.4108 77.9469 38.3461 77.9469 39.4655V39.4809C77.9469 40.6079 77.0652 41.5509 75.8692 41.5509ZM75.8845 41.0219C76.7432 41.0219 77.3413 40.3242 77.3413 39.4962V39.4809C77.3413 38.6298 76.7049 37.9321 75.8692 37.9321C75.0105 37.9321 74.4202 38.6298 74.4202 39.4655V39.4809C74.4202 40.3319 75.0488 41.0219 75.8845 41.0219ZM80.0131 41.5433C79.0624 41.5433 78.495 40.8992 78.495 39.9562V37.4951H79.0854V39.8105C79.0854 40.5466 79.4764 41.0066 80.1817 41.0066C80.8564 41.0066 81.3701 40.5082 81.3701 39.7645V37.4951H81.9528V41.4589H81.3701V40.7689C81.1018 41.1982 80.6954 41.5433 80.0131 41.5433ZM82.8208 41.4589V37.4951H83.4111V38.5302C83.7025 37.8708 84.2775 37.4031 85.0289 37.4261V38.0625H84.9829C84.1165 38.0625 83.4111 38.6835 83.4111 39.8795V41.4589H82.8208ZM87.0822 41.5509C85.9168 41.5509 85.0504 40.6079 85.0504 39.4962V39.4809C85.0504 38.3538 85.9168 37.4108 87.0822 37.4108C87.8335 37.4108 88.2935 37.7175 88.6692 38.1161L88.2782 38.5302C87.9639 38.2005 87.6188 37.9321 87.0745 37.9321C86.2695 37.9321 85.6561 38.6068 85.6561 39.4655V39.4809C85.6561 40.3396 86.2848 41.0219 87.1128 41.0219C87.6265 41.0219 88.0099 40.7689 88.3242 40.4316L88.6999 40.7842C88.3012 41.2366 87.8258 41.5509 87.0822 41.5509ZM90.8362 41.5509C89.7552 41.5509 88.8581 40.7152 88.8581 39.4885V39.4732C88.8581 38.3308 89.6555 37.4108 90.7595 37.4108C91.9326 37.4108 92.6073 38.3461 92.6073 39.5039C92.6073 39.5882 92.6073 39.6265 92.5996 39.6955H89.4562C89.5405 40.5542 90.1462 41.0372 90.8515 41.0372C91.4036 41.0372 91.7716 40.8149 92.1012 40.4776L92.4693 40.8072C92.0706 41.2596 91.5952 41.5509 90.8362 41.5509ZM89.4562 39.2585H92.0092C91.9479 38.5455 91.5416 37.9091 90.7442 37.9091C90.0465 37.9091 89.5405 38.4918 89.4562 39.2585ZM95.119 41.4589V36.0921H95.7323L97.6874 39.0208L99.6425 36.0921H100.256V41.4589H99.6501V37.1118L97.695 39.9869H97.6644L95.7093 37.1194V41.4589H95.119ZM101.231 36.6288V35.9771H101.905V36.6288H101.231ZM101.269 41.4589V37.4951H101.859V41.4589H101.269ZM104.556 41.5509C103.391 41.5509 102.524 40.6079 102.524 39.4962V39.4809C102.524 38.3538 103.391 37.4108 104.556 37.4108C105.307 37.4108 105.767 37.7175 106.143 38.1161L105.752 38.5302C105.438 38.2005 105.093 37.9321 104.548 37.9321C103.743 37.9321 103.13 38.6068 103.13 39.4655V39.4809C103.13 40.3396 103.759 41.0219 104.587 41.0219C105.1 41.0219 105.484 40.7689 105.798 40.4316L106.174 40.7842C105.775 41.2366 105.3 41.5509 104.556 41.5509ZM106.69 41.4589V37.4951H107.28V38.5302C107.571 37.8708 108.146 37.4031 108.898 37.4261V38.0625H108.852C107.985 38.0625 107.28 38.6835 107.28 39.8795V41.4589H106.69ZM110.821 41.5509C109.632 41.5509 108.766 40.6156 108.766 39.4962V39.4809C108.766 38.3538 109.632 37.4108 110.836 37.4108C112.032 37.4108 112.898 38.3461 112.898 39.4655V39.4809C112.898 40.6079 112.017 41.5509 110.821 41.5509ZM110.836 41.0219C111.695 41.0219 112.293 40.3242 112.293 39.4962V39.4809C112.293 38.6298 111.656 37.9321 110.821 37.9321C109.962 37.9321 109.371 38.6298 109.371 39.4655V39.4809C109.371 40.3319 110 41.0219 110.836 41.0219ZM113.653 41.4589V38.0165H113.109V37.5028H113.653V37.1578C113.653 36.7054 113.768 36.3681 113.998 36.1381C114.205 35.9311 114.489 35.8314 114.849 35.8314C115.125 35.8314 115.309 35.8621 115.501 35.9311V36.4447C115.286 36.3834 115.133 36.3451 114.926 36.3451C114.466 36.3451 114.236 36.6288 114.236 37.1884V37.5105H115.493V38.0165H114.244V41.4589H113.653ZM116.306 41.4589V37.4951H116.889V41.4589H116.306ZM116.26 36.6288V35.9771H116.935V36.6288H116.26ZM117.884 41.4589V37.4951H118.475V38.1851C118.743 37.7558 119.149 37.4108 119.832 37.4108C120.783 37.4108 121.35 38.0548 121.35 38.9978V41.4589H120.76V39.1435C120.76 38.4075 120.369 37.9475 119.663 37.9475C118.981 37.9475 118.475 38.4458 118.475 39.1895V41.4589H117.884ZM123.33 41.5433C122.594 41.5433 121.85 41.1292 121.85 40.3089V40.2935C121.85 39.4655 122.54 39.0132 123.544 39.0132C124.058 39.0132 124.403 39.0822 124.763 39.1818V39.0438C124.763 38.3308 124.326 37.9628 123.583 37.9628C123.115 37.9628 122.747 38.0778 122.379 38.2541L122.203 37.7711C122.64 37.5641 123.061 37.4414 123.644 37.4414C124.204 37.4414 124.633 37.5871 124.924 37.8785C125.193 38.1468 125.331 38.5378 125.331 39.0362V41.4589H124.763V40.8609C124.487 41.2212 124.035 41.5433 123.33 41.5433ZM123.445 41.0756C124.181 41.0756 124.771 40.6309 124.771 40.0022V39.6189C124.472 39.5345 124.096 39.4502 123.606 39.4502C122.862 39.4502 122.448 39.7722 122.448 40.2705V40.2859C122.448 40.7842 122.916 41.0756 123.445 41.0756ZM126.129 41.4589V37.4951H126.719V38.1851C126.987 37.7558 127.394 37.4108 128.076 37.4108C129.027 37.4108 129.594 38.0548 129.594 38.9978V41.4589H129.004V39.1435C129.004 38.4075 128.613 37.9475 127.908 37.9475C127.225 37.9475 126.719 38.4458 126.719 39.1895V41.4589H126.129ZM132.256 41.5509C131.091 41.5509 130.225 40.6079 130.225 39.4962V39.4809C130.225 38.3538 131.091 37.4108 132.256 37.4108C133.008 37.4108 133.468 37.7175 133.843 38.1161L133.452 38.5302C133.138 38.2005 132.793 37.9321 132.249 37.9321C131.444 37.9321 130.83 38.6068 130.83 39.4655V39.4809C130.83 40.3396 131.459 41.0219 132.287 41.0219C132.801 41.0219 133.184 40.7689 133.498 40.4316L133.874 40.7842C133.475 41.2366 133 41.5509 132.256 41.5509ZM135.934 41.5509C134.853 41.5509 133.956 40.7152 133.956 39.4885V39.4732C133.956 38.3308 134.753 37.4108 135.857 37.4108C137.03 37.4108 137.705 38.3461 137.705 39.5039C137.705 39.5882 137.705 39.6265 137.697 39.6955H134.554C134.638 40.5542 135.244 41.0372 135.949 41.0372C136.501 41.0372 136.869 40.8149 137.199 40.4776L137.567 40.8072C137.168 41.2596 136.693 41.5509 135.934 41.5509ZM134.554 39.2585H137.107C137.045 38.5455 136.639 37.9091 135.842 37.9091C135.144 37.9091 134.638 38.4918 134.554 39.2585ZM140.37 41.4589V36.0921H142.654C143.268 36.0921 143.751 36.2684 144.058 36.5674C144.288 36.8051 144.403 37.0964 144.403 37.4261V37.4414C144.403 38.1391 143.973 38.4995 143.552 38.6835C144.188 38.8675 144.702 39.2508 144.702 39.9792V39.9945C144.702 40.9146 143.927 41.4589 142.754 41.4589H140.37ZM143.789 37.5258V37.5105C143.789 36.9814 143.368 36.6364 142.601 36.6364H140.968V38.4842H142.555C143.291 38.4842 143.789 38.1621 143.789 37.5258ZM144.088 39.9562V39.9409C144.088 39.3582 143.605 39.0208 142.662 39.0208H140.968V40.9146H142.77C143.59 40.9146 144.088 40.5619 144.088 39.9562ZM146.601 41.5433C145.864 41.5433 145.121 41.1292 145.121 40.3089V40.2935C145.121 39.4655 145.811 39.0132 146.815 39.0132C147.329 39.0132 147.674 39.0822 148.034 39.1818V39.0438C148.034 38.3308 147.597 37.9628 146.854 37.9628C146.386 37.9628 146.018 38.0778 145.65 38.2541L145.473 37.7711C145.91 37.5641 146.332 37.4414 146.915 37.4414C147.475 37.4414 147.904 37.5871 148.195 37.8785C148.464 38.1468 148.602 38.5378 148.602 39.0362V41.4589H148.034V40.8609C147.758 41.2212 147.306 41.5433 146.601 41.5433ZM146.716 41.0756C147.452 41.0756 148.042 40.6309 148.042 40.0022V39.6189C147.743 39.5345 147.367 39.4502 146.877 39.4502C146.133 39.4502 145.719 39.7722 145.719 40.2705V40.2859C145.719 40.7842 146.187 41.0756 146.716 41.0756ZM149.4 41.4589V37.4951H149.99V38.1851C150.258 37.7558 150.665 37.4108 151.347 37.4108C152.298 37.4108 152.865 38.0548 152.865 38.9978V41.4589H152.275V39.1435C152.275 38.4075 151.884 37.9475 151.178 37.9475C150.496 37.9475 149.99 38.4458 149.99 39.1895V41.4589H149.4ZM153.664 41.4589V35.8621H154.255V39.7262L156.394 37.4951H157.13L155.466 39.1972L157.183 41.4589H156.478L155.06 39.6112L154.255 40.4239V41.4589H153.664ZM159.661 41.4589V36.0921H160.266V40.8992H163.287V41.4589H159.661ZM163.757 36.6288V35.9771H164.431V36.6288H163.757ZM163.795 41.4589V37.4951H164.385V41.4589H163.795ZM165.295 41.4589V37.4951H165.886V38.1621C166.154 37.7635 166.499 37.4108 167.166 37.4108C167.81 37.4108 168.224 37.7481 168.439 38.2005C168.73 37.7635 169.137 37.4108 169.834 37.4108C170.754 37.4108 171.306 38.0165 171.306 39.0055V41.4589H170.716V39.1435C170.716 38.3768 170.333 37.9475 169.689 37.9475C169.098 37.9475 168.592 38.3921 168.592 39.1742V41.4589H168.01V39.1282C168.01 38.3845 167.626 37.9475 166.99 37.9475C166.361 37.9475 165.886 38.4688 165.886 39.1972V41.4589H165.295ZM172.121 36.6288V35.9771H172.796V36.6288H172.121ZM172.159 41.4589V37.4951H172.75V41.4589H172.159ZM174.909 41.5279C174.265 41.5279 173.79 41.2136 173.79 40.4086V38.0165H173.238V37.4951H173.79V36.2991H174.38V37.4951H175.638V38.0165H174.38V40.3319C174.38 40.8226 174.649 40.9912 175.047 40.9912C175.254 40.9912 175.415 40.9529 175.622 40.8532V41.3593C175.415 41.4743 175.193 41.5279 174.909 41.5279ZM177.69 41.5509C176.609 41.5509 175.712 40.7152 175.712 39.4885V39.4732C175.712 38.3308 176.509 37.4108 177.613 37.4108C178.786 37.4108 179.461 38.3461 179.461 39.5039C179.461 39.5882 179.461 39.6265 179.453 39.6955H176.31C176.394 40.5542 177 41.0372 177.705 41.0372C178.257 41.0372 178.625 40.8149 178.955 40.4776L179.323 40.8072C178.924 41.2596 178.449 41.5509 177.69 41.5509ZM176.31 39.2585H178.863C178.801 38.5455 178.395 37.9091 177.598 37.9091C176.9 37.9091 176.394 38.4918 176.31 39.2585ZM181.775 41.5433C180.824 41.5433 179.881 40.7919 179.881 39.4885V39.4732C179.881 38.1851 180.824 37.4108 181.775 37.4108C182.511 37.4108 182.986 37.8018 183.293 38.2541V35.8621H183.883V41.4589H183.293V40.6616C182.963 41.1369 182.511 41.5433 181.775 41.5433ZM181.882 41.0142C182.618 41.0142 183.316 40.3932 183.316 39.4809V39.4655C183.316 38.5532 182.618 37.9398 181.882 37.9398C181.115 37.9398 180.487 38.5072 180.487 39.4655V39.4809C180.487 40.4239 181.123 41.0142 181.882 41.0142Z" fill="white"/>
<g filter="url(#filter0_d_6629_625)">
<path d="M14.819 3.88257H36.4922C43.0125 3.88257 48.2927 9.5483 48.2755 16.5255L48.2215 36.5483C48.2018 43.496 42.9339 49.1175 36.4381 49.1175H14.819C8.31088 49.1175 3.03564 43.4739 3.03564 36.5114V16.4886C3.03564 9.52619 8.31088 3.88257 14.819 3.88257Z" fill="#1A1A1A"/>
</g>
<path d="M33.4615 26.4349L36.0795 29.0528L21.8698 43.2626L19.2518 40.6446L33.4615 26.4349ZM15.1357 23.8169L17.7537 26.4349L31.9635 12.2251L29.3455 9.60715L15.1357 23.8169ZM21.3761 26.4349L25.6076 30.6664L29.8391 26.4349L25.6076 22.2034L21.3761 26.4349ZM30.3033 20.3074C29.5125 20.3074 28.8715 20.9484 28.8715 21.7392C28.8715 22.53 29.5125 23.171 30.3033 23.171C31.0941 23.171 31.7351 22.53 31.7351 21.7392C31.7351 20.9484 31.0941 20.3074 30.3033 20.3074Z" fill="url(#paint0_linear_6629_625)"/>
<defs>
<filter id="filter0_d_6629_625" x="0.0692756" y="0.916199" width="51.1725" height="51.1677" filterUnits="userSpaceOnUse" color-interpolation-filters="sRGB">
<feFlood flood-opacity="0" result="BackgroundImageFix"/>
<feColorMatrix in="SourceAlpha" type="matrix" values="0 0 0 0 0 0 0 0 0 0 0 0 0 0 0 0 0 0 127 0" result="hardAlpha"/>
<feOffset/>
<feGaussianBlur stdDeviation="1.48318"/>
<feComposite in2="hardAlpha" operator="out"/>
<feColorMatrix type="matrix" values="0 0 0 0 1 0 0 0 0 1 0 0 0 0 1 0 0 0 0.74902 0"/>
<feBlend mode="normal" in2="BackgroundImageFix" result="effect1_dropShadow_6629_625"/>
<feBlend mode="normal" in="SourceGraphic" in2="effect1_dropShadow_6629_625" result="shape"/>
</filter>
<linearGradient id="paint0_linear_6629_625" x1="36.0795" y1="26.4349" x2="15.1357" y2="26.4349" gradientUnits="userSpaceOnUse">
<stop stop-color="#00FFFF"/>
<stop offset="1" stop-color="#00B3FF"/>
</linearGradient>
</defs>
</svg>
