<svg width="181" height="176" viewBox="0 0 181 176" fill="none" xmlns="http://www.w3.org/2000/svg">
<path d="M26.4209 160.176C61.6422 180.965 118.754 180.965 153.979 160.176C189.204 139.386 189.204 105.68 153.979 84.895C118.754 64.1097 61.6422 64.1058 26.417 84.895C-8.80826 105.684 -8.80435 139.398 26.4209 160.176Z" fill="#F5F5F5"/>
<path d="M144.616 155.818C154.146 155.818 161.871 151.358 161.871 145.857C161.871 140.355 154.146 135.896 144.616 135.896C135.086 135.896 127.36 140.355 127.36 145.857C127.36 151.358 135.086 155.818 144.616 155.818Z" fill="#E0E0E0"/>
<path d="M133.791 17.6231L136.785 19.3529C136.769 19.2234 136.76 19.093 136.758 18.9624V18.0878C136.758 16.5258 137.844 15.9167 139.179 16.6899C139.754 17.0432 140.247 17.5159 140.624 18.0761C140.843 16.1237 142.365 15.413 144.216 16.479C146.216 17.6504 147.836 20.4424 147.836 22.754V24.0504C147.849 24.5681 147.745 25.082 147.532 25.5537L150.015 26.9907C150.408 27.2471 150.735 27.5932 150.969 28.0005C151.202 28.4078 151.336 28.8647 151.358 29.3336C151.358 30.1888 150.757 30.5363 150.015 30.1146L133.791 20.743C133.397 20.4866 133.07 20.1405 132.837 19.7332C132.603 19.326 132.47 18.8691 132.447 18.4002C132.455 17.5411 133.049 17.178 133.791 17.6231Z" fill="#EBEBEB"/>
<path d="M120.975 26.3464L123.236 27.6506C123.224 27.5522 123.217 27.4531 123.217 27.3539V26.6979C123.217 25.5264 124.037 25.0617 125.044 25.6436C125.479 25.9093 125.85 26.2664 126.133 26.6901C126.297 25.2257 127.445 24.6791 128.843 25.4835C129.639 26.0026 130.301 26.702 130.776 27.5249C131.251 28.3479 131.525 29.2712 131.577 30.22V31.2001C131.587 31.5902 131.508 31.9775 131.346 32.3325L133.221 33.418C133.516 33.6098 133.762 33.8685 133.938 34.1732C134.115 34.4778 134.217 34.8198 134.236 35.1713C134.236 35.8195 133.783 36.0811 133.221 35.757L120.975 28.6854C120.681 28.4944 120.436 28.2369 120.259 27.9337C120.083 27.6305 119.981 27.2901 119.96 26.94C119.96 26.284 120.417 26.0223 120.975 26.3464Z" fill="#EBEBEB"/>
<path d="M20.7319 100.202C20.5093 100.323 16.4366 101.483 14.9137 99.4833C13.3909 97.484 15.9095 94.3719 14.492 93.2356C13.0746 92.0993 9.0995 93.2356 8.14282 90.8263C7.18614 88.4171 10.021 87.3706 8.42787 84.9379C7.42434 83.4072 4.9565 82.5482 4.73783 81.1307C4.37859 78.7644 8.29901 77.675 11.6571 79.9124C15.0153 82.1499 17.0419 81.1229 18.1079 80.9706C19.1739 80.8183 21.466 81.1541 21.3918 84.8754C21.3176 88.5967 20.7319 100.202 20.7319 100.202Z" fill="#407BFF"/>
<path d="M21.0012 94.8834C20.9482 94.8839 20.8969 94.8652 20.8566 94.8308C20.8164 94.7963 20.7901 94.7484 20.7825 94.696C19.6111 87.6048 11.368 81.8296 7.08057 80.5918C7.02361 80.5758 6.97537 80.5377 6.94644 80.4861C6.91751 80.4345 6.91028 80.3735 6.92634 80.3165C6.94239 80.2596 6.98041 80.2113 7.03203 80.1824C7.08366 80.1535 7.14466 80.1462 7.20162 80.1623C11.5867 81.4314 20.0211 87.3471 21.2199 94.6101C21.2289 94.668 21.2147 94.7272 21.1803 94.7747C21.1459 94.8222 21.0942 94.8543 21.0363 94.8639L21.0012 94.8834Z" fill="white"/>
<path d="M11.278 88.9481C11.2289 88.9498 11.1807 88.9349 11.141 88.9059C11.1014 88.8768 11.0727 88.8352 11.0596 88.7878C11.0466 88.7404 11.0498 88.69 11.0689 88.6447C11.088 88.5994 11.1218 88.5619 11.1648 88.5381C11.2976 88.4561 14.4683 86.5857 17.596 87.4682C17.6527 87.4855 17.7006 87.5239 17.7297 87.5755C17.7588 87.6272 17.7668 87.688 17.7522 87.7454C17.7359 87.8017 17.698 87.8492 17.6468 87.8777C17.5956 87.9062 17.5353 87.9134 17.4789 87.8977C14.5307 87.0738 11.4069 88.9013 11.4069 88.9208C11.3675 88.9423 11.3227 88.9517 11.278 88.9481Z" fill="white"/>
<path d="M22.3135 102.927C22.3552 103.495 22.53 104.045 22.8237 104.533C23.1175 105.021 23.5219 105.433 24.0043 105.735L71.3812 133.069C71.9052 133.334 72.4845 133.473 73.072 133.473C73.6595 133.473 74.2388 133.334 74.7628 133.069L139.583 95.6411C140.093 95.3714 140.521 94.9675 140.819 94.4727C141.118 93.978 141.275 93.4112 141.275 92.8335C141.275 92.2558 141.118 91.6891 140.819 91.1943C140.521 90.6996 140.093 90.2956 139.583 90.026L92.2094 62.6923C91.6855 62.4265 91.1062 62.288 90.5187 62.288C89.9311 62.288 89.3518 62.4265 88.8279 62.6923L24.0082 100.12C23.5251 100.422 23.1199 100.833 22.8255 101.321C22.531 101.809 22.3556 102.359 22.3135 102.927Z" fill="#37474F"/>
<path d="M73.0717 129.831V133.49C72.4841 133.506 71.902 133.372 71.3809 133.1L24.004 105.766C23.5087 105.505 23.0914 105.117 22.7947 104.643C22.498 104.168 22.3325 103.623 22.315 103.063C22.2976 102.504 22.4288 101.949 22.6953 101.457C22.9618 100.965 23.3541 100.552 23.8322 100.26C23.0746 100.803 23.1332 101.6 24.004 102.103L71.3809 129.437C71.9017 129.711 72.4837 129.846 73.0717 129.831Z" fill="#263238"/>
<path d="M20.7279 100.178C20.2565 99.8594 19.8672 99.4334 19.5917 98.9354C19.3162 98.4373 19.1623 97.8811 19.1426 97.3123V40.7746C19.1746 40.188 19.3444 39.6172 19.6382 39.1084C19.9319 38.5996 20.3414 38.1671 20.8334 37.846L85.6531 0.422412C86.1561 0.155982 86.7146 0.0115128 87.2837 0.000660254C87.8528 -0.0101923 88.4164 0.112876 88.9292 0.359936C89.401 0.679828 89.7907 1.10639 90.0668 1.60503C90.3429 2.10367 90.4977 2.66036 90.5185 3.22996V59.7637C90.487 60.3505 90.3175 60.9215 90.0237 61.4304C89.7299 61.9393 89.3201 62.3717 88.8277 62.6923L24.008 100.12C23.5045 100.387 22.9449 100.532 22.375 100.542C21.805 100.552 21.2406 100.428 20.7279 100.178Z" fill="#455A64"/>
<path d="M23.8049 100.221C23.3202 100.44 22.7933 100.549 22.2616 100.542C21.73 100.534 21.2064 100.41 20.7279 100.178C20.2572 99.8587 19.8684 99.4326 19.5929 98.9347C19.3175 98.4368 19.1632 97.8809 19.1426 97.3123V40.7746C19.1618 40.1867 19.3326 39.6137 19.6385 39.1112L22.8092 40.9387C22.5055 41.4421 22.3349 42.0145 22.3133 42.6021V99.1436C22.3133 100.143 22.9654 100.592 23.8049 100.221Z" fill="#263238"/>
<path d="M22.3135 42.606V99.1436C22.3135 100.221 23.071 100.659 24.0043 100.12L88.824 62.6923C89.3164 62.3717 89.7262 61.9393 90.02 61.4304C90.3138 60.9215 90.4833 60.3505 90.5148 59.7637V3.22998C90.5148 2.15225 89.7572 1.71491 88.824 2.25378L24.0043 39.6774C23.5125 39.9987 23.1032 40.4312 22.8095 40.94C22.5157 41.4487 22.3458 42.0194 22.3135 42.606Z" fill="#37474F"/>
<path d="M24.0041 102.072L71.3811 129.406C71.9051 129.672 72.4843 129.81 73.0719 129.81C73.6594 129.81 74.2387 129.672 74.7627 129.406L139.582 91.9784C140.516 91.4395 140.516 90.5648 139.582 90.026L92.2093 62.6923C91.6854 62.4265 91.1061 62.288 90.5185 62.288C89.931 62.288 89.3517 62.4265 88.8278 62.6923L24.008 100.12C23.0709 100.659 23.0709 101.522 24.0041 102.072Z" fill="#455A64"/>
<path d="M24.9137 42.8168L87.3905 6.74427C87.9528 6.42017 88.4058 6.6818 88.4058 7.32999V56.2689C88.387 56.6211 88.2853 56.9638 88.1088 57.2692C87.9324 57.5746 87.6863 57.8339 87.3905 58.026L24.9137 94.1025C24.3514 94.4266 23.8984 94.165 23.8984 93.5168V44.574C23.9172 44.2218 24.019 43.8791 24.1954 43.5737C24.3718 43.2683 24.6179 43.009 24.9137 42.8168Z" fill="white"/>
<path opacity="0.6" d="M24.9137 42.8168L87.3905 6.74427C87.9528 6.42017 88.4058 6.6818 88.4058 7.32999V56.2689C88.387 56.6211 88.2853 56.9638 88.1088 57.2692C87.9324 57.5746 87.6863 57.8339 87.3905 58.026L24.9137 94.1025C24.3514 94.4266 23.8984 94.165 23.8984 93.5168V44.574C23.9172 44.2218 24.019 43.8791 24.1954 43.5737C24.3718 43.2683 24.6179 43.009 24.9137 42.8168Z" fill="#407BFF"/>
<path d="M56.0272 39.7203C57.6907 38.7597 59.0417 39.5407 59.0417 41.4619C58.9845 42.5071 58.6817 43.5242 58.158 44.4305C57.6342 45.3369 56.9042 46.1071 56.0272 46.6787C54.3638 47.6392 53.0166 46.8622 53.0166 44.941C53.0728 43.8954 53.3747 42.8778 53.8978 41.9708C54.4208 41.0637 55.1504 40.2927 56.0272 39.7203Z" fill="#F0F0F0"/>
<path d="M61.9664 49.9977C61.9664 46.8427 59.7485 45.4408 57.0151 47.0184L55.3087 48.0258C52.5753 49.5877 50.3574 53.4418 50.3574 56.6164V57.4676L61.9664 50.767V49.9977Z" fill="#F0F0F0"/>
<path d="M67.8357 51.5402C67.7264 51.2863 67.4452 51.2239 67.1289 51.4035L46.8552 63.1179C46.6375 63.2612 46.4563 63.4534 46.3261 63.6791C46.196 63.9049 46.1204 64.158 46.1055 64.4182V66.8001C46.1055 67.1906 46.3476 67.4054 46.6756 67.3156L46.7302 67.296C46.773 67.2789 46.8147 67.2593 46.8552 67.2375L67.1289 55.5231C67.3475 55.3807 67.5293 55.1887 67.6596 54.9627C67.7899 54.7368 67.8649 54.4832 67.8786 54.2228V51.8525C67.8823 51.7467 67.8678 51.6411 67.8357 51.5402Z" fill="#F0F0F0"/>
<path d="M48.6863 63.4147C49.0767 63.1843 49.4008 63.3717 49.4008 63.8247C49.3882 64.0723 49.3168 64.3134 49.1926 64.5279C49.0683 64.7425 48.8948 64.9244 48.6863 65.0586C48.2958 65.285 47.9756 65.1015 47.9756 64.6447C47.9884 64.3981 48.0595 64.158 48.183 63.9442C48.3065 63.7304 48.479 63.5489 48.6863 63.4147Z" fill="#407BFF"/>
<path d="M51.0447 62.0519C51.4351 61.8254 51.7553 62.0089 51.7553 62.4658C51.7425 62.7124 51.6715 62.9525 51.5479 63.1663C51.4244 63.3801 51.2519 63.5616 51.0447 63.6958C50.6542 63.9262 50.3301 63.7388 50.3301 63.3053C50.3396 63.0543 50.4096 62.8093 50.534 62.5911C50.6584 62.3729 50.8335 62.188 51.0447 62.0519Z" fill="#407BFF"/>
<path d="M53.3991 60.6931C53.7896 60.4666 54.1098 60.6501 54.1098 61.1031C54.0976 61.3504 54.0268 61.5912 53.9033 61.8057C53.7797 62.0203 53.6069 62.2024 53.3991 62.337C53.0087 62.5635 52.6846 62.38 52.6846 61.927C52.6972 61.6794 52.7686 61.4383 52.8928 61.2237C53.0171 61.0092 53.1906 60.8273 53.3991 60.6931Z" fill="#407BFF"/>
<path d="M55.7536 59.3498C56.1441 59.1194 56.4682 59.3069 56.4682 59.7403C56.4556 59.9879 56.3842 60.229 56.26 60.4436C56.1357 60.6581 55.9621 60.84 55.7536 60.9742C55.3632 61.2007 55.043 61.0172 55.043 60.5838C55.0552 60.3365 55.1259 60.0956 55.2495 59.8811C55.3731 59.6666 55.5459 59.4845 55.7536 59.3498Z" fill="#407BFF"/>
<path d="M58.1081 57.9714C58.4986 57.745 58.8227 57.9285 58.8227 58.3853C58.8085 58.6326 58.7365 58.8731 58.6124 59.0874C58.4883 59.3017 58.3155 59.4839 58.1081 59.6193C57.7177 59.8457 57.3975 59.6622 57.3975 59.2054C57.4112 58.9584 57.4826 58.7182 57.6061 58.5039C57.7295 58.2896 57.9015 58.1072 58.1081 57.9714Z" fill="#407BFF"/>
<path d="M60.4675 56.6164C60.858 56.3899 61.1782 56.5735 61.1782 57.0069C61.166 57.2542 61.0952 57.495 60.9716 57.7096C60.8481 57.9241 60.6753 58.1062 60.4675 58.2408C60.077 58.4673 59.7529 58.2838 59.7529 57.8503C59.7655 57.6027 59.8369 57.3617 59.9612 57.1471C60.0855 56.9325 60.259 56.7506 60.4675 56.6164Z" fill="#407BFF"/>
<path d="M62.822 55.2536C63.2125 55.0272 63.5327 55.2107 63.5327 55.6636C63.5205 55.9109 63.4497 56.1518 63.3261 56.3663C63.2026 56.5808 63.0298 56.7629 62.822 56.8976C62.4315 57.124 62.1113 56.9405 62.1113 56.4876C62.1235 56.2403 62.1943 55.9994 62.3179 55.7849C62.4414 55.5704 62.6142 55.3883 62.822 55.2536Z" fill="#407BFF"/>
<path d="M65.1765 53.8831C65.567 53.6566 65.8911 53.8401 65.8911 54.297C65.8769 54.5442 65.8049 54.7847 65.6807 54.999C65.5566 55.2134 65.3839 55.3955 65.1765 55.5309C64.786 55.7574 64.4658 55.5738 64.4658 55.117C64.4802 54.8702 64.5519 54.6302 64.6752 54.416C64.7986 54.2018 64.9702 54.0193 65.1765 53.8831Z" fill="#407BFF"/>
<path d="M29.5022 100.608L89.6713 65.8552C89.9333 65.7224 90.2229 65.6532 90.5166 65.6532C90.8104 65.6532 91.1 65.7224 91.362 65.8552L94.439 67.6318C94.541 67.6664 94.6296 67.7321 94.6923 67.8197C94.7551 67.9072 94.7888 68.0122 94.7888 68.1199C94.7888 68.2276 94.7551 68.3326 94.6923 68.4202C94.6296 68.5077 94.541 68.5734 94.439 68.608L34.2621 103.357C34.0001 103.49 33.7105 103.559 33.4167 103.559C33.123 103.559 32.8334 103.49 32.5713 103.357L29.5022 101.584C29.4002 101.549 29.3116 101.484 29.2488 101.396C29.1861 101.309 29.1523 101.204 29.1523 101.096C29.1523 100.988 29.1861 100.883 29.2488 100.796C29.3116 100.708 29.4002 100.643 29.5022 100.608Z" fill="#37474F"/>
<path d="M37.4325 105.188L97.6016 70.4355C97.8636 70.3027 98.1533 70.2335 98.447 70.2335C98.7407 70.2335 99.0304 70.3027 99.2924 70.4355L118.223 81.3689C118.325 81.4035 118.413 81.4692 118.476 81.5568C118.539 81.6443 118.573 81.7493 118.573 81.857C118.573 81.9647 118.539 82.0697 118.476 82.1573C118.413 82.2448 118.325 82.3105 118.223 82.3451L58.1241 117.043C57.8611 117.175 57.5709 117.244 57.2767 117.244C56.9825 117.244 56.6924 117.175 56.4294 117.043L37.4364 106.157C37.3352 106.123 37.2472 106.058 37.1847 105.971C37.1222 105.885 37.0883 105.781 37.0879 105.674C37.0875 105.567 37.1205 105.463 37.1823 105.376C37.2441 105.289 37.3316 105.223 37.4325 105.188Z" fill="#263238"/>
<path d="M91.3702 86.0781L93.2562 84.9887C93.3343 84.9418 93.3304 84.8637 93.2562 84.8169L91.0656 83.5595C91.0191 83.5355 90.9676 83.523 90.9153 83.523C90.863 83.523 90.8114 83.5355 90.7649 83.5595L88.8789 84.6489C88.8008 84.6919 88.8047 84.77 88.8789 84.8208L91.0578 86.0781C91.1058 86.1041 91.1594 86.1177 91.214 86.1177C91.2685 86.1177 91.3222 86.1041 91.3702 86.0781ZM87.6528 81.7555L85.7707 82.841C85.6887 82.8879 85.6926 82.966 85.7707 83.0167L87.9496 84.2741C87.9963 84.2972 88.0478 84.3092 88.0999 84.3092C88.152 84.3092 88.2035 84.2972 88.2502 84.2741L90.1363 83.1846C90.2144 83.1378 90.2105 83.0597 90.1363 83.0128L87.9418 81.7633C87.8974 81.74 87.8483 81.7272 87.7982 81.7259C87.7481 81.7245 87.6984 81.7346 87.6528 81.7555ZM81.5652 85.2698L78.3789 87.109C78.2969 87.1558 78.3047 87.2339 78.3789 87.2847L80.5539 88.542C80.6006 88.5651 80.6521 88.5771 80.7042 88.5771C80.7563 88.5771 80.8078 88.5651 80.8545 88.542L84.0448 86.7029C84.1229 86.656 84.119 86.5779 84.0448 86.5311L81.8659 85.2698C81.8191 85.2467 81.7677 85.2347 81.7156 85.2347C81.6634 85.2347 81.612 85.2467 81.5652 85.2698ZM84.8999 83.3447L83.0139 84.4342C82.9358 84.4771 82.9397 84.5552 83.0139 84.606L85.2084 85.8633C85.2552 85.8864 85.3066 85.8984 85.3587 85.8984C85.4109 85.8984 85.4623 85.8864 85.5091 85.8633L87.3912 84.7739C87.4732 84.727 87.4693 84.649 87.3912 84.6021L85.2084 83.3526C85.1616 83.3261 85.1089 83.3115 85.0551 83.3101C85.0013 83.3087 84.948 83.3206 84.8999 83.3447ZM77.5081 87.6127L75.626 88.6982C75.544 88.7451 75.5479 88.8232 75.626 88.8739L77.8049 90.1313C77.8514 90.1553 77.9029 90.1678 77.9552 90.1678C78.0075 90.1678 78.0591 90.1553 78.1056 90.1313L79.9916 89.0458C80.0697 88.9989 80.0658 88.9208 79.9916 88.87L77.8127 87.6127C77.7654 87.589 77.7133 87.5767 77.6604 87.5767C77.6075 87.5767 77.5554 87.589 77.5081 87.6127ZM74.7552 89.202L72.8731 90.2875C72.7911 90.3343 72.795 90.4124 72.8731 90.4632L75.0559 91.7205C75.1027 91.7436 75.1541 91.7556 75.2062 91.7556C75.2584 91.7556 75.3098 91.7436 75.3566 91.7205L77.2426 90.6311C77.3207 90.5842 77.3168 90.5062 77.2426 90.4593L75.0559 89.2098C75.0101 89.1846 74.9588 89.1707 74.9065 89.1694C74.8542 89.168 74.8023 89.1792 74.7552 89.202ZM83.3224 94.3172L85.2084 93.2278C85.2865 93.1809 85.2826 93.1029 85.2084 93.056L83.0295 91.7986C82.983 91.7747 82.9315 91.7622 82.8792 91.7622C82.8269 91.7622 82.7753 91.7747 82.7288 91.7986L80.8467 92.8881C80.7647 92.931 80.7725 93.0091 80.8467 93.0599L83.0217 94.3172C83.0682 94.3412 83.1197 94.3537 83.172 94.3537C83.2244 94.3537 83.2759 94.3412 83.3224 94.3172ZM80.589 95.9065L82.475 94.8171C82.5531 94.7702 82.5492 94.696 82.475 94.6453L80.2962 93.3879C80.2497 93.3639 80.1981 93.3514 80.1458 93.3514C80.0935 93.3514 80.042 93.3639 79.9955 93.3879L78.1134 94.4773C78.0314 94.5242 78.0353 94.5984 78.1134 94.6491L80.2923 95.9065C80.3357 95.9267 80.383 95.9372 80.4309 95.9372C80.4788 95.9372 80.5261 95.9267 80.5695 95.9065H80.589ZM77.8361 97.4958L79.7222 96.4063C79.8002 96.3634 79.7963 96.2853 79.7222 96.2345L77.5433 94.9771C77.4968 94.9532 77.4452 94.9407 77.3929 94.9407C77.3406 94.9407 77.2891 94.9532 77.2426 94.9771L75.3292 96.0549C75.2472 96.1017 75.2512 96.1798 75.3292 96.2267L77.5081 97.484C77.5546 97.5112 77.6071 97.5264 77.6609 97.5285C77.7147 97.5305 77.7682 97.5193 77.8166 97.4958H77.8361ZM75.1028 99.085L76.9888 97.9956C77.0669 97.9526 77.063 97.8745 76.9888 97.8238L74.8099 96.5664C74.7632 96.5433 74.7117 96.5313 74.6596 96.5313C74.6074 96.5313 74.556 96.5433 74.5092 96.5664L72.6232 97.6558C72.5451 97.7027 72.549 97.7808 72.6232 97.8277L74.8021 99.085C74.8423 99.1019 74.8854 99.1105 74.929 99.1105C74.9726 99.1105 75.0157 99.1019 75.0559 99.085H75.1028ZM88.6563 87.6674L90.5385 86.5779C90.6205 86.5311 90.6166 86.4569 90.5385 86.4061L88.3322 85.1488C88.2858 85.1248 88.2342 85.1123 88.1819 85.1123C88.1296 85.1123 88.0781 85.1248 88.0316 85.1488L86.1456 86.2382C86.0675 86.2851 86.0714 86.3593 86.1456 86.41L88.3322 87.6596C88.3761 87.6822 88.4245 87.6947 88.4739 87.6961C88.5232 87.6974 88.5723 87.6876 88.6173 87.6674H88.6563ZM86.1182 92.7436L90.2846 90.2992C90.3627 90.2523 90.3588 90.1742 90.2846 90.1274L84.978 87.0738C84.9315 87.0499 84.88 87.0374 84.8277 87.0374C84.7754 87.0374 84.7238 87.0499 84.6773 87.0738L82.5063 88.3273C82.4243 88.3741 82.4282 88.4522 82.5063 88.503L85.3099 90.1196C85.3958 90.1703 85.3997 90.2484 85.3099 90.2914L83.5723 91.2949C83.4903 91.3418 83.4981 91.4199 83.5723 91.4706L85.7512 92.728C85.8014 92.7557 85.8578 92.7702 85.9152 92.7702C85.9725 92.7702 86.0289 92.7557 86.0792 92.728L86.1182 92.7436ZM72.0609 90.7912L70.1749 91.8806C70.0968 91.9236 70.1007 92.0017 70.1749 92.0525L72.3226 93.3215C72.3693 93.3446 72.4207 93.3566 72.4729 93.3566C72.525 93.3566 72.5765 93.3446 72.6232 93.3215L74.5053 92.2321C74.5873 92.1852 74.5834 92.1071 74.5053 92.0603L72.3226 90.799C72.2743 90.7705 72.2195 90.7547 72.1635 90.7534C72.1074 90.752 72.0519 90.765 72.0024 90.7912H72.0609ZM69.308 92.3805L67.422 93.4699C67.3439 93.5168 67.3478 93.591 67.422 93.6417L69.6009 94.8991C69.6474 94.923 69.6989 94.9355 69.7512 94.9355C69.8035 94.9355 69.8551 94.923 69.9016 94.8991L71.7837 93.8096C71.8657 93.7628 71.8618 93.6847 71.7837 93.6378L69.6048 92.3805C69.5518 92.3463 69.4902 92.3282 69.4271 92.3282C69.3641 92.3282 69.3024 92.3463 69.2495 92.3805H69.308ZM55.5475 110.206C55.594 110.23 55.6456 110.242 55.6979 110.242C55.7502 110.242 55.8017 110.23 55.8482 110.206L57.7342 109.116C57.8123 109.07 57.8084 108.991 57.7342 108.945L55.5553 107.687C55.5088 107.663 55.4573 107.651 55.405 107.651C55.3527 107.651 55.3011 107.663 55.2547 107.687L53.3725 108.777C53.2905 108.82 53.2945 108.898 53.3725 108.949L55.5475 110.206ZM47.2811 105.098L45.3365 106.207C45.2584 106.25 45.2623 106.328 45.3365 106.379L47.5153 107.637C47.5621 107.66 47.6135 107.672 47.6657 107.672C47.7178 107.672 47.7693 107.66 47.816 107.637L49.6981 106.547C49.7801 106.5 49.7762 106.422 49.6981 106.375L47.5192 105.118C47.4748 105.092 47.4248 105.076 47.3732 105.073C47.3216 105.069 47.27 105.078 47.2225 105.098H47.2811ZM51.713 108.827C51.7595 108.851 51.811 108.864 51.8633 108.864C51.9156 108.864 51.9672 108.851 52.0137 108.827L53.8958 107.738C53.9778 107.691 53.97 107.613 53.8958 107.566L51.7169 106.309C51.6704 106.285 51.6189 106.272 51.5666 106.272C51.5143 106.272 51.4627 106.285 51.4162 106.309L49.5341 107.398C49.456 107.445 49.4599 107.519 49.5341 107.57L51.713 108.827ZM60.409 111.17L62.295 110.081C62.3731 110.034 62.3692 109.956 62.295 109.909L60.1161 108.652C60.0697 108.628 60.0181 108.615 59.9658 108.615C59.9135 108.615 59.862 108.628 59.8155 108.652L57.8748 109.722C57.7928 109.765 57.7967 109.843 57.8748 109.893L60.0537 111.151C60.0981 111.177 60.1479 111.193 60.1993 111.197C60.2508 111.201 60.3024 111.193 60.3504 111.174L60.409 111.17ZM57.3554 112.732C57.4019 112.756 57.4535 112.769 57.5058 112.769C57.5581 112.769 57.6096 112.756 57.6561 112.732L59.5421 111.643C59.6202 111.596 59.6163 111.518 59.5421 111.471L57.3633 110.214C57.3168 110.19 57.2652 110.177 57.2129 110.177C57.1606 110.177 57.1091 110.19 57.0626 110.214L55.1766 111.303C55.0985 111.346 55.1024 111.424 55.1766 111.475L57.3554 112.732ZM50.0339 103.486L48.1479 104.571C48.0698 104.618 48.0737 104.696 48.1479 104.747L50.3268 106.004C50.3736 106.027 50.425 106.039 50.4771 106.039C50.5293 106.039 50.5807 106.027 50.6275 106.004L52.5096 104.915C52.5916 104.868 52.5877 104.79 52.5096 104.743L50.3307 103.482C50.2748 103.453 50.2119 103.44 50.1492 103.445C50.0864 103.45 50.0263 103.472 49.9754 103.509L50.0339 103.486ZM63.732 95.559L61.846 96.6484C61.7679 96.6953 61.7718 96.7734 61.846 96.8202L64.0248 98.0776C64.0713 98.1015 64.1229 98.1141 64.1752 98.1141C64.2275 98.1141 64.279 98.1015 64.3255 98.0776L66.2076 96.9881C66.2896 96.9452 66.2818 96.8671 66.2076 96.8163L64.0287 95.559C63.9827 95.5359 63.9319 95.524 63.8804 95.524C63.8289 95.524 63.7781 95.5359 63.732 95.559ZM52.7283 101.912L50.8461 103.005C50.7641 103.052 50.768 103.13 50.8461 103.181L53.025 104.438C53.0715 104.462 53.123 104.475 53.1754 104.475C53.2277 104.475 53.2792 104.462 53.3257 104.438L55.2117 103.353C55.2898 103.306 55.2859 103.228 55.2117 103.177L53.0289 101.912C52.9822 101.889 52.9307 101.877 52.8786 101.877C52.8264 101.877 52.775 101.889 52.7283 101.912ZM66.4966 93.9619L64.6106 95.0513C64.5325 95.0982 64.5364 95.1763 64.6106 95.2232L66.7894 96.4805C66.8359 96.5045 66.8875 96.517 66.9398 96.517C66.9921 96.517 67.0436 96.5045 67.0901 96.4805L68.9722 95.3911C69.0542 95.3442 69.0464 95.27 68.9722 95.2192L66.7934 93.9619C66.7468 93.9398 66.6956 93.929 66.644 93.9303C66.5925 93.9317 66.542 93.9452 66.4966 93.9697V93.9619ZM60.9986 97.1482L59.1165 98.2377C59.0345 98.2845 59.0423 98.3626 59.1165 98.4095L61.2954 99.6668C61.3419 99.6908 61.3934 99.7033 61.4457 99.7033C61.498 99.7033 61.5496 99.6908 61.5961 99.6668L63.4782 98.5813C63.5563 98.5344 63.5524 98.4563 63.4782 98.4056L61.2993 97.1482C61.2525 97.1251 61.2011 97.1131 61.149 97.1131C61.0968 97.1131 61.0454 97.1251 60.9986 97.1482ZM58.2457 98.7414L56.3636 99.8269C56.2816 99.8738 56.2894 99.9519 56.3636 99.9987L58.5386 101.26C58.5854 101.283 58.6368 101.295 58.6889 101.295C58.7411 101.295 58.7925 101.283 58.8393 101.26L60.7253 100.174C60.8034 100.128 60.7995 100.049 60.7253 99.9987L58.5464 98.7414C58.4984 98.7154 58.4448 98.7018 58.3902 98.7018C58.3357 98.7018 58.282 98.7154 58.234 98.7414H58.2457ZM55.5124 100.331L53.6303 101.416C53.5483 101.463 53.5522 101.541 53.6303 101.592L55.8091 102.849C55.8559 102.872 55.9073 102.884 55.9595 102.884C56.0116 102.884 56.0631 102.872 56.1098 102.849L57.9958 101.764C58.0739 101.717 58.07 101.639 57.9958 101.588L55.7818 100.35C55.7351 100.327 55.6836 100.315 55.6315 100.315C55.5793 100.315 55.5279 100.327 55.4811 100.35L55.5124 100.331ZM69.5697 102.264L71.4518 101.178C71.5338 101.131 71.526 101.053 71.4518 101.002L69.2729 99.7449C69.2264 99.7209 69.1749 99.7084 69.1226 99.7084C69.0703 99.7084 69.0187 99.7209 68.9722 99.7449L67.0862 100.83C67.0081 100.877 67.012 100.955 67.0862 101.006L69.2651 102.264C69.3108 102.285 69.3608 102.297 69.4115 102.297C69.4622 102.297 69.5122 102.285 69.558 102.264H69.5697ZM93.7521 78.2412L91.8466 79.3306C91.7685 79.3736 91.7724 79.4517 91.8466 79.5024L94.0254 80.7598C94.0722 80.7828 94.1236 80.7948 94.1758 80.7948C94.2279 80.7948 94.2794 80.7828 94.3261 80.7598L96.2082 79.6703C96.2902 79.6235 96.2863 79.5454 96.2082 79.4985L94.0294 78.2412C93.9844 78.2191 93.935 78.2076 93.8849 78.2076C93.8348 78.2076 93.7854 78.2191 93.7404 78.2412H93.7521ZM90.4174 80.1662L88.5353 81.2518C88.4533 81.2986 88.4572 81.3767 88.5353 81.4275L90.7142 82.6848C90.7607 82.7088 90.8122 82.7213 90.8645 82.7213C90.9168 82.7213 90.9684 82.7088 91.0148 82.6848L92.9009 81.5993C92.979 81.5524 92.9751 81.4743 92.9009 81.4236L90.722 80.1662C90.6732 80.1406 90.6189 80.1272 90.5638 80.1272C90.5087 80.1272 90.4545 80.1406 90.4057 80.1662H90.4174ZM96.505 76.6519L94.619 77.7374C94.5409 77.7843 94.5448 77.8624 94.619 77.9132L96.7979 79.1705C96.8446 79.1936 96.8961 79.2056 96.9482 79.2056C97.0003 79.2056 97.0518 79.1936 97.0985 79.1705L98.9806 78.0811C99.0626 78.0342 99.0587 77.9561 98.9806 77.9093L96.8018 76.648C96.7537 76.6243 96.7007 76.6123 96.6471 76.6129C96.5934 76.6136 96.5407 76.627 96.4933 76.6519H96.505ZM82.2407 91.3691L84.1268 90.2797C84.2049 90.2328 84.201 90.1547 84.1268 90.1079L81.9479 88.8466C81.9011 88.8235 81.8497 88.8115 81.7976 88.8115C81.7454 88.8115 81.694 88.8235 81.6472 88.8466L79.7417 89.9087C79.6636 89.9556 79.6675 90.0337 79.7417 90.0844L81.9206 91.3418C81.9675 91.3724 82.0213 91.3909 82.0772 91.3957C82.1331 91.4005 82.1893 91.3913 82.2407 91.3691ZM99.5468 75.0861C99.5001 75.063 99.4486 75.051 99.3965 75.051C99.3444 75.051 99.2929 75.063 99.2462 75.0861L97.3641 76.1404C97.2821 76.1872 97.286 76.2653 97.3641 76.3161L99.5429 77.5734C99.5894 77.5974 99.641 77.6099 99.6933 77.6099C99.7456 77.6099 99.7971 77.5974 99.8436 77.5734L101.73 76.4879C101.808 76.4411 101.804 76.363 101.73 76.3122L99.5468 75.0861ZM72.3226 100.674L74.2047 99.5887C74.2867 99.5419 74.2828 99.4638 74.2047 99.413L72.0258 98.1557C71.979 98.1326 71.9276 98.1206 71.8755 98.1206C71.8233 98.1206 71.7719 98.1326 71.7251 98.1557L69.8391 99.2451C69.761 99.292 69.7649 99.37 69.8391 99.4169L72.018 100.678C72.0655 100.701 72.1179 100.713 72.1707 100.712C72.2236 100.712 72.2756 100.699 72.3226 100.674ZM106.087 81.1815L107.97 80.092C108.052 80.0452 108.048 79.9671 107.97 79.9202L105.791 78.6629C105.744 78.6389 105.693 78.6264 105.64 78.6264C105.588 78.6264 105.536 78.6389 105.49 78.6629L103.604 79.7523C103.526 79.7953 103.53 79.8734 103.604 79.9241L105.783 81.1815C105.828 81.2042 105.878 81.216 105.929 81.216C105.98 81.216 106.03 81.2042 106.076 81.1815H106.087ZM100.23 80.9745L102.112 79.8851C102.194 79.8382 102.19 79.7601 102.112 79.7133L99.9334 78.4559C99.8869 78.432 99.8354 78.4195 99.7831 78.4195C99.7308 78.4195 99.6792 78.432 99.6327 78.4559L97.7038 79.5376C97.6257 79.5805 97.6296 79.6586 97.7038 79.7094L99.8826 80.9667C99.9318 80.9967 99.988 81.0132 100.046 81.0146C100.103 81.016 100.16 81.0021 100.211 80.9745H100.23ZM102.678 76.8628C102.632 76.8397 102.58 76.8277 102.528 76.8277C102.476 76.8277 102.425 76.8397 102.378 76.8628L100.492 77.9483C100.414 77.9952 100.418 78.0733 100.492 78.124L102.671 79.3814C102.717 79.4044 102.769 79.4164 102.821 79.4164C102.873 79.4164 102.925 79.4044 102.971 79.3814L104.857 78.2919C104.935 78.2451 104.932 78.167 104.857 78.1201L102.678 76.8628ZM103.256 76.5309L108.547 79.5844C108.594 79.6075 108.646 79.6195 108.698 79.6195C108.75 79.6195 108.801 79.6075 108.848 79.5844L110.734 78.495C110.812 78.4481 110.808 78.37 110.734 78.3232L105.443 75.2657C105.396 75.2426 105.345 75.2306 105.293 75.2306C105.241 75.2306 105.189 75.2426 105.142 75.2657L103.26 76.3512C103.147 76.402 103.171 76.4801 103.237 76.5309H103.256ZM96.872 80.0452L94.9704 81.1268C94.8923 81.1737 94.8962 81.2479 94.9704 81.2986L97.1493 82.556C97.1958 82.5799 97.2473 82.5925 97.2996 82.5925C97.3519 82.5925 97.4035 82.5799 97.45 82.556L99.3321 81.4665C99.4141 81.4197 99.4102 81.3455 99.3321 81.2947L97.1532 80.0452C97.1067 80.0212 97.0552 80.0087 97.0029 80.0087C96.9506 80.0087 96.899 80.0212 96.8525 80.0452H96.872ZM76.1493 92.0095L74.2632 93.0989C74.1851 93.1458 74.189 93.22 74.2632 93.2708L76.4421 94.5281C76.4886 94.5521 76.5401 94.5646 76.5925 94.5646C76.6448 94.5646 76.6963 94.5521 76.7428 94.5281L78.6249 93.4387C78.7069 93.3918 78.6991 93.3176 78.6249 93.2668L76.4499 92.0095C76.4017 91.9809 76.3469 91.9652 76.2909 91.9639C76.2348 91.9625 76.1793 91.9755 76.1297 92.0017L76.1493 92.0095ZM103.022 82.7786C103.069 82.8025 103.12 82.815 103.172 82.815C103.225 82.815 103.276 82.8025 103.323 82.7786L105.205 81.6891C105.287 81.6423 105.283 81.5681 105.205 81.5173L103.026 80.26C102.98 80.236 102.928 80.2235 102.876 80.2235C102.823 80.2235 102.772 80.236 102.725 80.26L100.828 81.3338C100.75 81.3806 100.753 81.4548 100.828 81.5056L103.022 82.7786ZM78.8826 90.4124L77.0083 91.5019C76.9302 91.5448 76.9341 91.6229 77.0083 91.6737L79.1872 92.931C79.2337 92.955 79.2852 92.9675 79.3375 92.9675C79.3898 92.9675 79.4414 92.955 79.4879 92.931L81.37 91.8416C81.452 91.7947 81.4481 91.7166 81.37 91.6698L79.1911 90.4124C79.1436 90.3871 79.0907 90.3739 79.0369 90.3739C78.9831 90.3739 78.9301 90.3871 78.8826 90.4124ZM58.2418 108.617C58.2886 108.64 58.34 108.652 58.3922 108.652C58.4443 108.652 58.4958 108.64 58.5425 108.617L60.4285 107.527C60.5066 107.48 60.5027 107.402 60.4285 107.355L58.2496 106.098C58.2032 106.074 58.1516 106.062 58.0993 106.062C58.047 106.062 57.9955 106.074 57.949 106.098L56.0669 107.187C55.9849 107.23 55.9888 107.309 56.0669 107.359L58.2418 108.617ZM54.1027 104.712L52.2167 105.817C52.1386 105.86 52.1425 105.938 52.2167 105.989L54.3956 107.246C54.4424 107.269 54.4938 107.281 54.5459 107.281C54.5981 107.281 54.6495 107.269 54.6963 107.246L56.5784 106.157C56.6604 106.11 56.6526 106.032 56.5784 105.985L54.4034 104.727C54.3576 104.702 54.3063 104.688 54.254 104.687C54.2017 104.686 54.1498 104.697 54.1027 104.72V104.712ZM61.2954 107.027L63.1814 105.938C63.2595 105.891 63.2556 105.813 63.1814 105.766L60.9986 104.513C60.9519 104.49 60.9004 104.478 60.8483 104.478C60.7962 104.478 60.7447 104.49 60.698 104.513L58.8158 105.598C58.7338 105.645 58.7417 105.723 58.8158 105.774L60.9986 107.027C61.0443 107.051 61.0947 107.064 61.1461 107.065C61.1975 107.067 61.2486 107.056 61.2954 107.035V107.027ZM64.0522 105.434L65.9343 104.349C66.0124 104.302 66.0085 104.224 65.9343 104.173L63.732 102.923C63.6852 102.9 63.6338 102.888 63.5817 102.888C63.5295 102.888 63.4781 102.9 63.4313 102.923L61.5492 104.009C61.4672 104.056 61.475 104.134 61.5492 104.185L63.7281 105.442C63.7788 105.468 63.8354 105.48 63.8922 105.477C63.949 105.474 64.0042 105.457 64.0522 105.426V105.434ZM66.8051 103.845L68.6872 102.759C68.7692 102.713 68.7614 102.634 68.6872 102.584L66.5083 101.326C66.4622 101.303 66.4114 101.291 66.3599 101.291C66.3084 101.291 66.2576 101.303 66.2115 101.326L64.3255 102.412C64.2474 102.459 64.2513 102.537 64.3255 102.588L66.5044 103.864C66.5512 103.888 66.6026 103.9 66.6547 103.9C66.7069 103.9 66.7583 103.888 66.8051 103.864V103.845ZM56.8556 103.123L54.9696 104.208C54.8915 104.255 54.8954 104.333 54.9696 104.384L57.1485 105.641C57.1952 105.664 57.2467 105.676 57.2988 105.676C57.351 105.676 57.4024 105.664 57.4492 105.641L59.3313 104.552C59.4133 104.505 59.4094 104.427 59.3313 104.38L57.1524 103.119C57.1053 103.098 57.0541 103.088 57.0027 103.09C56.9513 103.092 56.901 103.106 56.8556 103.13V103.123ZM59.6085 101.533L57.7225 102.619C57.6444 102.666 57.6483 102.744 57.7225 102.795L59.9014 104.052C59.9479 104.076 59.9994 104.088 60.0517 104.088C60.104 104.088 60.1556 104.076 60.202 104.052L62.0842 102.966C62.1662 102.92 62.1623 102.841 62.0842 102.791L59.9053 101.533C59.8584 101.512 59.8074 101.502 59.756 101.503C59.7046 101.504 59.6542 101.517 59.6085 101.541V101.533ZM70.6201 95.1724L68.7379 96.2618C68.6559 96.3087 68.6638 96.3868 68.7379 96.4336L70.9168 97.691C70.9626 97.7149 71.0135 97.7274 71.0652 97.7274C71.1169 97.7274 71.1678 97.7149 71.2136 97.691L73.0996 96.6015C73.1777 96.5586 73.1738 96.4805 73.0996 96.4297L70.9207 95.1724C70.8734 95.1505 70.8216 95.1399 70.7695 95.1412C70.7173 95.1426 70.6662 95.1559 70.6201 95.1802V95.1724ZM67.8867 96.7616L66.0046 97.8511C65.9226 97.8979 65.9304 97.976 66.0046 98.0229L68.1796 99.2841C68.2263 99.3072 68.2778 99.3192 68.3299 99.3192C68.382 99.3192 68.4335 99.3072 68.4802 99.2841L70.3662 98.1986C70.4443 98.1518 70.4404 98.0737 70.3662 98.0229L68.1874 96.7656C68.1378 96.7398 68.0826 96.7267 68.0268 96.7274C67.9709 96.7281 67.9161 96.7425 67.8672 96.7695L67.8867 96.7616ZM73.3964 93.5831L71.5104 94.6726C71.4323 94.7194 71.4362 94.7975 71.5104 94.8444L73.6892 96.1017C73.7357 96.1257 73.7873 96.1382 73.8396 96.1382C73.8919 96.1382 73.9434 96.1257 73.9899 96.1017L75.872 95.0123C75.954 94.9693 75.9462 94.8913 75.872 94.8405L73.6931 93.5831C73.6443 93.5569 73.5894 93.5439 73.534 93.5452C73.4785 93.5466 73.4244 93.5624 73.3768 93.5909L73.3964 93.5831ZM62.3614 99.9597L60.4793 101.045C60.3973 101.092 60.4012 101.17 60.4793 101.221L62.6582 102.478C62.7049 102.501 62.7564 102.513 62.8085 102.513C62.8606 102.513 62.9121 102.501 62.9588 102.478L64.8449 101.393C64.923 101.346 64.919 101.268 64.8449 101.217L62.6621 99.9597C62.6153 99.9366 62.5639 99.9246 62.5117 99.9246C62.4596 99.9246 62.4082 99.9366 62.3614 99.9597ZM65.0948 98.3704L63.2126 99.456C63.1306 99.5028 63.1346 99.5809 63.2126 99.6317L65.3915 100.889C65.4383 100.912 65.4897 100.924 65.5419 100.924C65.594 100.924 65.6454 100.912 65.6922 100.889L67.5782 99.8035C67.6563 99.7566 67.6524 99.6785 67.5782 99.6278L65.3993 98.3704C65.3555 98.3478 65.3071 98.3353 65.2577 98.3339C65.2083 98.3326 65.1593 98.3424 65.1143 98.3626L65.0948 98.3704ZM63.0838 109.593L64.9698 108.503C65.0479 108.457 65.044 108.378 64.9698 108.332L62.7909 107.07C62.7442 107.047 62.6927 107.035 62.6406 107.035C62.5885 107.035 62.537 107.047 62.4903 107.07L60.6081 108.16C60.5261 108.207 60.53 108.285 60.6081 108.335L62.7831 109.593C62.833 109.618 62.8883 109.63 62.9442 109.629C63 109.628 63.0547 109.613 63.1033 109.585L63.0838 109.593ZM46.9413 107.953L44.7664 106.695C44.7199 106.671 44.6683 106.659 44.616 106.659C44.5637 106.659 44.5122 106.671 44.4657 106.695L42.5836 107.769C42.5055 107.812 42.5094 107.89 42.5836 107.941L44.7625 109.198C44.8089 109.222 44.8605 109.235 44.9128 109.235C44.9651 109.235 45.0166 109.222 45.0631 109.198L46.9452 108.109C47.039 108.078 47.0311 108 46.9413 107.953ZM51.0687 109.163L48.8937 107.906C48.8473 107.882 48.7957 107.869 48.7434 107.869C48.6911 107.869 48.6396 107.882 48.5931 107.906L45.6957 109.581C45.6176 109.628 45.6215 109.702 45.6957 109.753L47.8746 111.01C47.9211 111.034 47.9726 111.047 48.0249 111.047C48.0772 111.047 48.1288 111.034 48.1753 111.01L51.0726 109.335C51.1624 109.288 51.1585 109.214 51.0726 109.163H51.0687ZM43.6027 105.52L41.4278 104.255C41.381 104.232 41.3296 104.22 41.2774 104.22C41.2253 104.22 41.1738 104.232 41.1271 104.255L38.8076 105.594C38.7256 105.641 38.7334 105.719 38.8076 105.77L40.9826 107.027C41.0294 107.05 41.0808 107.062 41.1329 107.062C41.1851 107.062 41.2365 107.05 41.2833 107.027L43.6027 105.688C43.6964 105.649 43.6925 105.571 43.6066 105.52H43.6027ZM45.3794 104.493C45.4259 104.517 45.4774 104.53 45.5297 104.53C45.5821 104.53 45.6336 104.517 45.6801 104.493L47.5622 103.404C47.6442 103.357 47.6364 103.283 47.5622 103.232L45.3794 101.982C45.3329 101.958 45.2814 101.946 45.2291 101.946C45.1768 101.946 45.1252 101.958 45.0787 101.982L43.1927 103.084C43.1146 103.13 43.1185 103.205 43.1927 103.255L45.3794 104.493ZM54.9071 110.542L52.7283 109.284C52.6818 109.26 52.6302 109.248 52.5779 109.248C52.5256 109.248 52.4741 109.26 52.4276 109.284L48.8039 111.377C48.7258 111.424 48.7297 111.502 48.8039 111.549L50.9828 112.806C51.0293 112.83 51.0808 112.843 51.1331 112.843C51.1854 112.843 51.237 112.83 51.2835 112.806L54.9032 110.714C55.0008 110.667 54.9969 110.592 54.911 110.542H54.9071ZM56.7151 113.092L54.5362 111.834C54.4897 111.81 54.4381 111.798 54.3858 111.798C54.3335 111.798 54.282 111.81 54.2355 111.834L51.9161 113.174C51.838 113.22 51.8419 113.298 51.9161 113.345L54.0949 114.607C54.1417 114.63 54.1931 114.642 54.2453 114.642C54.2974 114.642 54.3488 114.63 54.3956 114.607L56.7112 113.267C56.8088 113.236 56.8049 113.142 56.7033 113.092H56.7151ZM65.8484 92.6733C65.8949 92.6973 65.9464 92.7098 65.9987 92.7098C66.051 92.7098 66.1026 92.6973 66.1491 92.6733L68.0351 91.5839C68.1132 91.5409 68.1093 91.4628 68.0351 91.4121L65.8562 90.1547C65.8097 90.1308 65.7582 90.1182 65.7059 90.1182C65.6536 90.1182 65.602 90.1308 65.5555 90.1547L63.6734 91.2442C63.5914 91.291 63.5992 91.3691 63.6734 91.416L65.8484 92.6733ZM60.3426 95.8557C60.3894 95.8788 60.4408 95.8908 60.493 95.8908C60.5451 95.8908 60.5965 95.8788 60.6433 95.8557L62.5293 94.7702C62.6074 94.7233 62.6035 94.6452 62.5293 94.5945L60.3504 93.3371C60.3037 93.3141 60.2522 93.3021 60.2001 93.3021C60.148 93.3021 60.0965 93.3141 60.0498 93.3371L58.1676 94.4266C58.0856 94.4734 58.0895 94.5515 58.1676 94.5984L60.3426 95.8557ZM48.1323 102.904C48.1788 102.928 48.2303 102.94 48.2826 102.94C48.3349 102.94 48.3865 102.928 48.433 102.904L50.3151 101.814C50.3971 101.768 50.3932 101.69 50.3151 101.643L48.1362 100.385C48.0897 100.361 48.0382 100.349 47.9859 100.349C47.9336 100.349 47.882 100.361 47.8355 100.385L45.9495 101.475C45.8714 101.518 45.8753 101.596 45.9495 101.647L48.1323 102.904ZM63.0955 94.2626C63.142 94.2865 63.1935 94.2991 63.2458 94.2991C63.2981 94.2991 63.3497 94.2865 63.3962 94.2626L65.2822 93.1731C65.3603 93.1302 65.3564 93.0521 65.2822 93.0013L63.0955 91.7596C63.0487 91.7365 62.9973 91.7245 62.9452 91.7245C62.893 91.7245 62.8416 91.7365 62.7948 91.7596L60.9127 92.849C60.8307 92.8959 60.8346 92.974 60.9127 93.0209L63.0955 94.2626ZM57.5897 97.445C57.6365 97.4681 57.6879 97.4801 57.7401 97.4801C57.7922 97.4801 57.8436 97.4681 57.8904 97.445L59.7764 96.3595C59.8545 96.3126 59.8506 96.2345 59.7764 96.1837L57.5975 94.9264C57.5511 94.9024 57.4995 94.8899 57.4472 94.8899C57.3949 94.8899 57.3434 94.9024 57.2969 94.9264L55.4109 96.0119C55.3328 96.0588 55.3367 96.1369 55.4109 96.1876L57.5897 97.445ZM58.2262 113.295C58.1797 113.271 58.1282 113.258 58.0759 113.258C58.0236 113.258 57.972 113.271 57.9255 113.295L55.0282 114.966C54.9501 115.013 54.954 115.091 55.0282 115.142L57.2071 116.399C57.2538 116.422 57.3053 116.434 57.3574 116.434C57.4095 116.434 57.461 116.422 57.5077 116.399L60.4051 114.728C60.4832 114.681 60.4793 114.603 60.4051 114.552L58.2262 113.295ZM53.642 99.7254C53.6885 99.7494 53.74 99.7619 53.7923 99.7619C53.8446 99.7619 53.8962 99.7494 53.9426 99.7254L55.8287 98.6399C55.9068 98.593 55.9029 98.5149 55.8287 98.4641L53.6381 97.2263C53.5913 97.2032 53.5399 97.1912 53.4877 97.1912C53.4356 97.1912 53.3842 97.2032 53.3374 97.2263L51.4553 98.3119C51.3733 98.3587 51.3772 98.4368 51.4553 98.4876L53.642 99.7254ZM50.9086 101.315C50.9554 101.338 51.0068 101.35 51.0589 101.35C51.1111 101.35 51.1625 101.338 51.2093 101.315L53.0914 100.225C53.1734 100.178 53.1695 100.1 53.0914 100.053L50.8852 98.7882C50.8387 98.7643 50.7872 98.7518 50.7349 98.7518C50.6825 98.7518 50.631 98.7643 50.5845 98.7882L48.6985 99.8738C48.6204 99.9206 48.6243 99.9987 48.6985 100.049L50.9086 101.315ZM109.262 83.8446C109.215 83.8215 109.164 83.8095 109.112 83.8095C109.06 83.8095 109.008 83.8215 108.961 83.8446L104.322 86.5233C104.244 86.5701 104.248 86.6482 104.322 86.699L106.501 87.9563C106.548 87.9794 106.599 87.9914 106.652 87.9914C106.704 87.9914 106.755 87.9794 106.802 87.9563L111.437 85.2776C111.519 85.2347 111.515 85.1566 111.437 85.1058L109.262 83.8446ZM103.174 87.3589C103.128 87.3349 103.076 87.3224 103.024 87.3224C102.972 87.3224 102.92 87.3349 102.874 87.3589L100.992 88.4483C100.91 88.4952 100.914 88.5733 100.992 88.6201L103.17 89.8775C103.217 89.9015 103.269 89.914 103.321 89.914C103.373 89.914 103.425 89.9015 103.471 89.8775L105.357 88.788C105.435 88.7451 105.431 88.667 105.357 88.6162L103.174 87.3589ZM65.8757 107.992L67.7617 106.906C67.8398 106.859 67.8359 106.781 67.7617 106.731L65.5829 105.473C65.5361 105.45 65.4847 105.438 65.4325 105.438C65.3804 105.438 65.329 105.45 65.2822 105.473L63.4001 106.559C63.3181 106.606 63.3259 106.684 63.4001 106.735L65.579 107.992C65.6222 108.013 65.6696 108.023 65.7176 108.023C65.7656 108.023 65.8129 108.013 65.8562 107.992H65.8757ZM97.6686 90.5374C97.6221 90.5134 97.5706 90.5009 97.5183 90.5009C97.466 90.5009 97.4145 90.5134 97.368 90.5374L95.4819 91.6229C95.4038 91.6698 95.4077 91.7479 95.4819 91.7986L97.6608 93.056C97.7076 93.0791 97.759 93.0911 97.8112 93.0911C97.8633 93.0911 97.9147 93.0791 97.9615 93.056L99.8436 91.9705C99.9256 91.9236 99.9217 91.8455 99.8436 91.7947L97.6686 90.5374ZM112.015 82.2553C111.968 82.2313 111.917 82.2188 111.865 82.2188C111.812 82.2188 111.761 82.2313 111.714 82.2553L109.809 83.3369C109.731 83.3838 109.734 83.4619 109.809 83.5087L111.988 84.7661C112.034 84.7901 112.086 84.8026 112.138 84.8026C112.19 84.8026 112.242 84.7901 112.288 84.7661L114.17 83.6767C114.252 83.6337 114.248 83.5556 114.17 83.5048L112.015 82.2553ZM116.947 81.9234L111.636 78.8737C111.59 78.8498 111.538 78.8373 111.486 78.8373C111.433 78.8373 111.382 78.8498 111.335 78.8737L109.453 79.9632C109.371 80.0061 109.375 80.0842 109.453 80.135L114.752 83.169C114.799 83.193 114.85 83.2055 114.902 83.2055C114.955 83.2055 115.006 83.193 115.053 83.169L116.939 82.0796C117.017 82.0484 117.013 81.9742 116.927 81.9234H116.947ZM87.3795 96.4766C87.3327 96.4535 87.2813 96.4415 87.2291 96.4415C87.177 96.4415 87.1256 96.4535 87.0788 96.4766L84.7594 97.8159C84.6773 97.8589 84.6852 97.937 84.7594 97.9878L86.9382 99.2451C86.9847 99.2691 87.0363 99.2816 87.0886 99.2816C87.1409 99.2816 87.1924 99.2691 87.2389 99.2451L89.5545 97.9058C89.6365 97.8589 89.6325 97.7808 89.5545 97.7339L87.3795 96.4766ZM94.3339 92.4625C94.2872 92.4394 94.2357 92.4274 94.1836 92.4274C94.1314 92.4274 94.08 92.4394 94.0333 92.4625L91.1359 94.1376C91.0539 94.1845 91.0617 94.2626 91.1359 94.3094L93.3148 95.5668C93.3613 95.5908 93.4128 95.6033 93.4651 95.6033C93.5174 95.6033 93.569 95.5908 93.6154 95.5668L96.5128 93.8916C96.5909 93.8487 96.587 93.7706 96.5128 93.7198L94.3339 92.4625ZM81.0029 100.159C80.9564 100.135 80.9049 100.122 80.8526 100.122C80.8003 100.122 80.7487 100.135 80.7023 100.159L65.1768 109.105C65.0948 109.152 65.1026 109.23 65.1768 109.28L67.3517 110.538C67.3985 110.561 67.4499 110.573 67.5021 110.573C67.5542 110.573 67.6056 110.561 67.6524 110.538L83.1584 101.588C83.2404 101.541 83.2365 101.463 83.1584 101.412L81.0029 100.159ZM64.6262 109.612C64.5794 109.589 64.528 109.577 64.4759 109.577C64.4237 109.577 64.3723 109.589 64.3255 109.612L62.0061 110.952C61.928 110.995 61.9319 111.073 62.0061 111.124L64.1849 112.381C64.2314 112.405 64.283 112.417 64.3353 112.417C64.3876 112.417 64.4391 112.405 64.4856 112.381L66.8051 111.042C66.8832 110.995 66.8793 110.917 66.8051 110.87L64.6262 109.612ZM84.1892 98.3197C84.1428 98.2957 84.0912 98.2832 84.0389 98.2832C83.9866 98.2832 83.9351 98.2957 83.8886 98.3197L81.573 99.659C81.491 99.7059 81.4949 99.784 81.573 99.8308L83.7519 101.092C83.7987 101.115 83.8501 101.127 83.9022 101.127C83.9544 101.127 84.0058 101.115 84.0526 101.092L86.372 99.7527C86.4501 99.7059 86.4462 99.6317 86.372 99.5809L84.1892 98.3197ZM61.4399 111.455C61.3934 111.431 61.3418 111.419 61.2895 111.419C61.2372 111.419 61.1857 111.431 61.1392 111.455L58.8197 112.795C58.7377 112.842 58.7456 112.92 58.8197 112.967L60.9986 114.228C61.0447 114.251 61.0955 114.263 61.147 114.263C61.1985 114.263 61.2493 114.251 61.2954 114.228L63.6148 112.888C63.6968 112.842 63.6929 112.767 63.6148 112.717L61.4399 111.455ZM90.5658 94.6374C90.519 94.6144 90.4676 94.6024 90.4155 94.6024C90.3633 94.6024 90.3119 94.6144 90.2651 94.6374L87.9418 95.969C87.8637 96.0158 87.8676 96.0939 87.9418 96.1447L90.1206 97.402C90.1671 97.426 90.2187 97.4385 90.271 97.4385C90.3233 97.4385 90.3748 97.426 90.4213 97.402L92.7408 96.0666C92.8189 96.0197 92.815 95.9416 92.7408 95.8909L90.5658 94.6374ZM100.422 88.9481C100.375 88.9251 100.323 88.9131 100.271 88.9131C100.219 88.9131 100.168 88.9251 100.121 88.9481L98.2348 90.0376C98.1567 90.0844 98.1606 90.1625 98.2348 90.2094L100.414 91.4706C100.46 91.4937 100.512 91.5057 100.564 91.5057C100.616 91.5057 100.668 91.4937 100.714 91.4706L102.596 90.3851C102.678 90.3383 102.675 90.2602 102.596 90.2094L100.422 88.9481ZM106.454 84.567L108.337 83.4775C108.419 83.4346 108.415 83.3565 108.337 83.3057L106.158 82.0484C106.111 82.0244 106.06 82.0119 106.007 82.0119C105.955 82.0119 105.903 82.0244 105.857 82.0484L103.951 83.13C103.873 83.1768 103.877 83.2549 103.951 83.3018L106.13 84.5591C106.177 84.585 106.229 84.5992 106.282 84.6006C106.335 84.6019 106.387 84.5904 106.435 84.567H106.454ZM94.1426 84.4889L96.0286 83.3994C96.1067 83.3526 96.1028 83.2745 96.0286 83.2276L93.8497 81.9703C93.8032 81.9463 93.7517 81.9338 93.6994 81.9338C93.6471 81.9338 93.5955 81.9463 93.5491 81.9703L91.6669 83.0558C91.5849 83.1027 91.5888 83.1807 91.6669 83.2315L93.8458 84.4889C93.8894 84.5083 93.9367 84.5184 93.9844 84.5184C94.0322 84.5184 94.0794 84.5083 94.1231 84.4889H94.1426ZM87.8949 95.2778L93.4007 92.0954C93.4788 92.0525 93.4749 91.9744 93.4007 91.9236L91.2218 90.6663C91.1753 90.6423 91.1238 90.6298 91.0715 90.6298C91.0192 90.6298 90.9676 90.6423 90.9211 90.6663L85.4154 93.8448C85.3334 93.8916 85.3412 93.9697 85.4154 94.0205L87.5942 95.2778C87.6403 95.2991 87.6904 95.3097 87.7411 95.309C87.7918 95.3084 87.8417 95.2964 87.8871 95.2739L87.8949 95.2778ZM103.389 86.1484C103.436 86.1724 103.487 86.1849 103.54 86.1849C103.592 86.1849 103.643 86.1724 103.69 86.1484L105.572 85.0629C105.654 85.016 105.646 84.9379 105.572 84.8871L103.397 83.6298C103.35 83.6067 103.299 83.5947 103.247 83.5947C103.195 83.5947 103.143 83.6067 103.096 83.6298L101.191 84.731C101.113 84.7778 101.117 84.8559 101.191 84.9028L103.389 86.1484ZM100.578 84.36L102.46 83.2706C102.542 83.2276 102.538 83.1495 102.46 83.0987L100.285 81.8414C100.238 81.8174 100.187 81.8049 100.135 81.8049C100.082 81.8049 100.031 81.8174 99.9842 81.8414L98.0943 82.923C98.0162 82.9699 98.0201 83.048 98.0943 83.0948L100.273 84.3522C100.318 84.3767 100.369 84.3902 100.421 84.3916C100.472 84.3929 100.523 84.3821 100.57 84.36H100.578ZM85.1381 96.8554L87.0241 95.7659C87.1022 95.7191 87.0983 95.641 87.0241 95.5941L84.8179 94.3485C84.7714 94.3245 84.7199 94.312 84.6676 94.312C84.6153 94.312 84.5637 94.3245 84.5172 94.3485L82.6351 95.4379C82.5531 95.4809 82.5609 95.559 82.6351 95.6097L84.8101 96.8671C84.8594 96.8934 84.9144 96.9072 84.9702 96.9072C85.0261 96.9072 85.081 96.8934 85.1303 96.8671L85.1381 96.8554ZM97.3133 89.6627C97.3598 89.6867 97.4113 89.6992 97.4636 89.6992C97.5159 89.6992 97.5675 89.6867 97.614 89.6627L99.4961 88.5733C99.5781 88.5303 99.5742 88.4522 99.4961 88.4015L97.3172 87.1441C97.2707 87.1201 97.2192 87.1076 97.1669 87.1076C97.1146 87.1076 97.063 87.1201 97.0165 87.1441L95.1032 88.2453C95.0251 88.2921 95.029 88.3702 95.1032 88.4171L97.3133 89.6627ZM71.3854 104.813L73.2675 103.728C73.3495 103.681 73.3417 103.603 73.2675 103.552L71.0613 102.303C71.0148 102.279 70.9633 102.266 70.911 102.266C70.8587 102.266 70.8071 102.279 70.7606 102.303L68.8746 103.388C68.7965 103.435 68.8004 103.513 68.8746 103.564L71.0535 104.821C71.1024 104.845 71.1563 104.857 71.2106 104.855C71.265 104.854 71.3182 104.84 71.3659 104.813H71.3854ZM74.1188 103.224L76.0009 102.139C76.0829 102.092 76.079 102.014 76.0009 101.963L73.822 100.705C73.7752 100.682 73.7238 100.67 73.6717 100.67C73.6195 100.67 73.5681 100.682 73.5213 100.705L71.6353 101.795C71.5572 101.842 71.5611 101.92 71.6353 101.967L73.8142 103.224C73.8612 103.249 73.9134 103.262 73.9665 103.262C74.0195 103.262 74.0718 103.249 74.1188 103.224ZM68.613 106.403L70.4951 105.317C70.5771 105.27 70.5693 105.192 70.4951 105.141L68.3162 103.884C68.2695 103.861 68.218 103.849 68.1659 103.849C68.1137 103.849 68.0623 103.861 68.0156 103.884L66.1334 104.97C66.0553 105.016 66.0592 105.094 66.1334 105.145L68.3123 106.403C68.3591 106.426 68.4105 106.438 68.4627 106.438C68.5148 106.438 68.5662 106.426 68.613 106.403ZM79.6245 100.046L81.5106 98.9561C81.5886 98.9093 81.5847 98.8351 81.5106 98.7843L79.3317 97.527C79.2852 97.503 79.2336 97.4905 79.1813 97.4905C79.129 97.4905 79.0775 97.503 79.031 97.527L77.1489 98.6164C77.0669 98.6633 77.0708 98.7375 77.1489 98.7882L79.3278 100.046C79.3738 100.069 79.4246 100.081 79.4762 100.081C79.5277 100.081 79.5785 100.069 79.6245 100.046ZM76.8912 101.635L78.7733 100.545C78.8553 100.502 78.8514 100.424 78.7733 100.374L76.5944 99.1162C76.5479 99.0923 76.4964 99.0798 76.4441 99.0798C76.3918 99.0798 76.3402 99.0923 76.2937 99.1162L74.4077 100.206C74.3296 100.253 74.3335 100.331 74.4077 100.377L76.5866 101.635C76.631 101.656 76.6798 101.667 76.7291 101.667C76.7785 101.667 76.8272 101.656 76.8716 101.635H76.8912ZM82.3969 98.4563L84.283 97.3669C84.3611 97.32 84.3572 97.2419 84.283 97.1951L82.0846 95.9377C82.0381 95.9138 81.9865 95.9013 81.9342 95.9013C81.8819 95.9013 81.8304 95.9138 81.7839 95.9377L79.9018 97.0272C79.8198 97.0701 79.8237 97.1482 79.9018 97.199L82.0807 98.4563C82.1266 98.4797 82.1775 98.4918 82.229 98.4918C82.2806 98.4918 82.3314 98.4797 82.3774 98.4563H82.3969ZM94.9704 74.9377C95.0169 74.9617 95.0684 74.9742 95.1207 74.9742C95.1731 74.9742 95.2246 74.9617 95.2711 74.9377L97.1571 73.8483C97.2352 73.8014 97.2313 73.7272 97.1571 73.6765L96.5753 73.3406C96.5288 73.3167 96.4773 73.3042 96.425 73.3042C96.3726 73.3042 96.3211 73.3167 96.2746 73.3406L94.3925 74.4262C94.3144 74.473 94.3183 74.5511 94.3925 74.6019L94.9704 74.9377ZM81.4246 83.6845C81.4714 83.7075 81.5228 83.7195 81.575 83.7195C81.6271 83.7195 81.6786 83.7075 81.7253 83.6845L83.6074 82.5989C83.6894 82.5521 83.6855 82.474 83.6074 82.4232L81.4325 81.1659C81.386 81.1419 81.3344 81.1294 81.2821 81.1294C81.2298 81.1294 81.1783 81.1419 81.1318 81.1659L79.2458 82.2514C79.1677 82.2983 79.1716 82.3764 79.2458 82.4271L81.4246 83.6845ZM86.9304 80.5021C86.9769 80.526 87.0284 80.5385 87.0808 80.5385C87.1331 80.5385 87.1846 80.526 87.2311 80.5021L89.1132 79.4204C89.1952 79.3775 89.1913 79.2994 89.1132 79.2486L86.9343 77.9913C86.8876 77.9682 86.8361 77.9562 86.784 77.9562C86.7319 77.9562 86.6804 77.9682 86.6337 77.9913L84.7476 79.0807C84.6695 79.1276 84.6734 79.2057 84.7476 79.2525L86.9304 80.5021ZM78.0626 85.6251C78.1094 85.6482 78.1608 85.6602 78.2129 85.6602C78.2651 85.6602 78.3165 85.6482 78.3633 85.6251L80.2454 84.5396C80.3274 84.4928 80.3196 84.4147 80.2454 84.3639L78.0704 83.1066C78.0237 83.0835 77.9722 83.0715 77.9201 83.0715C77.868 83.0715 77.8165 83.0835 77.7698 83.1066L75.8837 84.1921C75.8056 84.2389 75.8095 84.317 75.8837 84.3678L78.0626 85.6251ZM84.1775 82.1108C84.2243 82.1339 84.2757 82.1459 84.3279 82.1459C84.38 82.1459 84.4314 82.1339 84.4782 82.1108L86.3603 81.0253C86.4423 80.9784 86.4384 80.9003 86.3603 80.8496L84.1814 79.5922C84.1347 79.5692 84.0832 79.5572 84.0311 79.5572C83.979 79.5572 83.9275 79.5692 83.8808 79.5922L81.9947 80.6817C81.9167 80.7285 81.9206 80.8066 81.9947 80.8535L84.1775 82.1108ZM72.5568 88.8193C72.6029 88.8423 72.6537 88.8543 72.7052 88.8543C72.7567 88.8543 72.8075 88.8423 72.8536 88.8193L74.7396 87.7298C74.8177 87.683 74.8138 87.6049 74.7396 87.558L72.5529 86.2929C72.5062 86.2698 72.4547 86.2578 72.4026 86.2578C72.3505 86.2578 72.299 86.2698 72.2523 86.2929L70.3702 87.3706C70.2882 87.4175 70.296 87.4955 70.3702 87.5463L72.5568 88.8193ZM75.2902 87.23C75.3367 87.254 75.3882 87.2665 75.4405 87.2665C75.4928 87.2665 75.5444 87.254 75.5909 87.23L77.473 86.1445C77.555 86.0976 77.5472 86.0195 77.473 85.9688L75.2941 84.7114C75.248 84.6884 75.1972 84.6764 75.1457 84.6764C75.0942 84.6764 75.0434 84.6884 74.9973 84.7114L73.1113 85.797C73.0332 85.8438 73.0371 85.9219 73.1113 85.9727L75.2902 87.23ZM89.4451 78.1318C89.4916 78.1558 89.5431 78.1683 89.5954 78.1683C89.6478 78.1683 89.6993 78.1558 89.7458 78.1318L91.6279 77.0424C91.7099 76.9994 91.706 76.9213 91.6279 76.8706L91.0656 76.5309C91.0189 76.5078 90.9674 76.4958 90.9153 76.4958C90.8631 76.4958 90.8117 76.5078 90.7649 76.5309L88.8828 77.6164C88.8008 77.6633 88.8047 77.7414 88.8828 77.7921L89.4451 78.1318ZM97.7038 73.3641C97.7503 73.388 97.8018 73.4006 97.8541 73.4006C97.9064 73.4006 97.958 73.388 98.0044 73.3641L99.8905 72.2746C99.9686 72.2278 99.9647 72.1497 99.8905 72.1028L99.3125 71.767C99.2658 71.7439 99.2143 71.7319 99.1622 71.7319C99.1101 71.7319 99.0586 71.7439 99.0119 71.767L97.1259 72.8564C97.0478 72.9033 97.0517 72.9814 97.1259 73.0283L97.7038 73.3641ZM102.28 76.0076C102.327 76.0307 102.378 76.0427 102.431 76.0427C102.483 76.0427 102.534 76.0307 102.581 76.0076L104.467 74.9221C104.545 74.8752 104.541 74.7971 104.467 74.7464L102.288 73.489C102.241 73.466 102.19 73.454 102.138 73.454C102.086 73.454 102.034 73.466 101.987 73.489L100.117 74.5785C100.035 74.6253 100.039 74.7034 100.117 74.7542L102.28 76.0076ZM109.164 82.9933L111.046 81.9039C111.128 81.857 111.125 81.7828 111.046 81.7321L108.868 80.4747C108.821 80.4507 108.77 80.4382 108.717 80.4382C108.665 80.4382 108.613 80.4507 108.567 80.4747L106.685 81.5407C106.607 81.5876 106.611 81.6618 106.685 81.7125L108.864 82.9699C108.912 82.9992 108.968 83.0153 109.025 83.0166C109.082 83.018 109.138 83.0046 109.188 82.9777L109.164 82.9933ZM92.237 76.5309C92.2835 76.5548 92.3351 76.5673 92.3874 76.5673C92.4397 76.5673 92.4912 76.5548 92.5377 76.5309L94.4198 75.4414C94.5018 75.3985 94.4979 75.3204 94.4198 75.2696L93.838 74.9338C93.7913 74.9107 93.7398 74.8987 93.6877 74.8987C93.6355 74.8987 93.5841 74.9107 93.5373 74.9338L91.6552 76.0193C91.5732 76.0662 91.581 76.1443 91.6552 76.1951L92.237 76.5309ZM69.804 90.3929C69.8504 90.4169 69.902 90.4294 69.9543 90.4294C70.0066 90.4294 70.0581 90.4169 70.1046 90.3929L71.9906 89.3035C72.0687 89.2566 72.0648 89.1785 71.9906 89.1317L69.8118 87.8743C69.7653 87.8503 69.7137 87.8378 69.6614 87.8378C69.6091 87.8378 69.5576 87.8503 69.5111 87.8743L67.6368 88.9638C67.5548 89.0067 67.5626 89.0848 67.6368 89.1356L69.804 90.3929Z" fill="#455A64"/>
<path d="M82.0135 106.922L100.604 96.1877C100.919 96.0279 101.267 95.9446 101.62 95.9446C101.972 95.9446 102.32 96.0279 102.635 96.1877L113.295 102.342C113.857 102.666 113.857 103.189 113.295 103.513L94.7041 114.247C94.3896 114.407 94.0417 114.491 93.6889 114.491C93.336 114.491 92.9882 114.407 92.6736 114.247L82.0135 108.093C81.4551 107.769 81.4551 107.242 82.0135 106.922Z" fill="#263238"/>
<path d="M116.204 55.3044H116.181L113.006 53.4769C112.822 53.3949 112.553 53.4769 112.225 53.719C109.273 55.976 105.302 56.6789 102.073 55.648C101.864 55.453 101.666 55.247 101.479 55.031L101.42 54.9646C101.327 54.8567 101.216 54.7656 101.092 54.6952L101.038 54.664L97.8592 52.8404C97.4961 52.6686 97.1681 52.8404 96.9494 53.3793C93.8802 61.0054 87.3397 68.733 82.978 70.6659C82.6482 70.8138 82.355 71.0324 82.119 71.3062C81.8055 71.6466 81.6325 72.0931 81.6348 72.5558L82.2635 89.6783C82.2635 94.6257 84.3525 99.8504 88.6127 102.392L91.9005 104.29L91.9591 104.321C93.7367 105.319 95.7466 105.83 97.785 105.801C98.2419 105.801 98.7066 105.782 99.1869 105.735C100.121 105.581 100.987 105.148 101.67 104.493C111.202 94.6492 115.837 81.326 115.837 73.9537L116.446 56.0228C116.47 55.6363 116.376 55.3981 116.204 55.3044Z" fill="#407BFF"/>
<path d="M116.446 56.0228L115.818 73.9341C115.818 81.3064 111.183 94.6296 101.651 104.474C100.968 105.129 100.102 105.562 99.1676 105.715C98.6873 105.762 98.2226 105.782 97.7657 105.782C95.7273 105.81 93.7174 105.3 91.9398 104.302L91.8812 104.271L91.768 104.2C87.5078 101.658 85.4187 96.4336 85.4187 91.4862L84.8174 74.3637C84.8151 73.9009 84.9881 73.4545 85.3016 73.1141C85.5376 72.8403 85.8309 72.6217 86.1607 72.4737C90.5223 70.5213 97.0629 62.8133 100.132 55.1872C100.351 54.6483 100.683 54.4726 101.046 54.6444L101.1 54.6756C101.224 54.746 101.335 54.8372 101.428 54.9451L101.487 55.0115C104.744 58.803 111.147 58.7991 115.423 55.5269C115.747 55.2809 116.017 55.2028 116.204 55.2848H116.228C116.376 55.398 116.47 55.6362 116.446 56.0228Z" fill="#407BFF"/>
<path opacity="0.4" d="M116.185 55.2809C116.002 55.1989 115.732 55.2809 115.404 55.523C111.378 58.6039 105.463 58.7875 102.069 55.6246C105.314 56.6593 109.278 55.9565 112.222 53.6956C112.546 53.4496 112.815 53.3715 113.003 53.4535L116.185 55.2809Z" fill="white"/>
<path opacity="0.4" d="M101.026 54.6405C100.663 54.4687 100.331 54.6405 100.112 55.1833C97.0432 62.8094 90.5027 70.537 86.141 72.4699C85.8112 72.6178 85.5179 72.8365 85.2819 73.1103C85.2 73.2036 85.1268 73.3042 85.0633 73.4109L81.8926 71.5796C81.9558 71.4749 82.0276 71.3756 82.1073 71.2828C82.1512 71.2318 82.1981 71.1835 82.2479 71.1383L82.3026 71.0837L82.3573 71.0329C82.5377 70.8723 82.7418 70.7406 82.9625 70.6424C87.3242 68.7095 93.8647 60.9819 96.9339 53.3559C97.1525 52.817 97.4805 52.6452 97.8437 52.817L101.026 54.6405Z" fill="white"/>
<path d="M82.2517 71.1305C82.268 71.1116 82.2864 71.0945 82.3064 71.0797L82.2517 71.1344C82.2517 71.1344 82.2478 71.1305 82.2517 71.1305Z" fill="#407BFF"/>
<path opacity="0.15" d="M82.3066 71.0641L82.252 71.1188C82.268 71.0985 82.2864 71.0801 82.3066 71.0641Z" fill="black"/>
<path opacity="0.15" d="M91.9477 104.298L91.8891 104.271L88.6013 102.369C84.3411 99.8269 82.2521 94.6023 82.2521 89.6549L81.6234 72.5324C81.6166 72.1951 81.7104 71.8634 81.8928 71.5796L85.0635 73.4109C84.8838 73.6943 84.7915 74.0243 84.798 74.3598L85.4267 91.4824C85.4267 96.4298 87.5157 101.635 91.7759 104.196L91.8891 104.267L91.9477 104.298Z" fill="black"/>
<path d="M103.17 88.5459L98.0937 91.4745L98.8746 82.2943C98.2694 81.9741 97.8789 81.1853 97.8789 80.049C97.8789 78.0303 99.1089 75.6796 100.612 74.8049C102.116 73.9302 103.346 74.8596 103.346 76.8783C103.315 78.0764 102.973 79.2458 102.354 80.2716L103.17 88.5459Z" fill="#455A64"/>
<path d="M103.162 88.5459L98.5662 85.8906L98.0898 91.4745L103.162 88.5459Z" fill="#37474F"/>
<path d="M100.628 74.8049C99.6323 75.3789 98.7694 76.5816 98.2852 77.9092L102.389 80.2716C103.009 79.2458 103.351 78.0764 103.381 76.8783C103.369 74.8596 102.143 73.9302 100.628 74.8049Z" fill="#37474F"/>
<path d="M37.1475 141.874V143.397C37.1475 145.193 38.3189 146.985 40.693 148.356C44.262 150.414 49.5023 150.917 53.8952 149.867L57.9718 152.21L61.0956 151.499L63.2315 152.737L63.3487 155.318L64.5201 155.986L67.4136 156.24L69.4909 157.411V158.868L72.1033 160.371H78.7414L81.1194 159V157.462L59.9007 146.751C60.8009 145.87 61.3267 144.675 61.369 143.416V141.854C61.0488 140.363 59.807 139.593 57.8273 138.449C53.0986 135.716 45.4374 135.716 40.7086 138.449C38.5688 139.699 37.3622 140.269 37.1475 141.874ZM43.6451 140.089C44.3966 139.708 45.2273 139.51 46.0699 139.51C46.9126 139.51 47.7433 139.708 48.4948 140.089C49.8342 140.87 49.8342 142.116 48.4948 142.889C47.7433 143.27 46.9126 143.469 46.0699 143.469C45.2273 143.469 44.3966 143.27 43.6451 142.889C42.3057 142.132 42.3057 140.862 43.6451 140.089Z" fill="#407BFF"/>
<path opacity="0.1" d="M37.1475 141.874V143.397C37.1475 145.193 38.3189 146.985 40.693 148.356C44.262 150.414 49.5023 150.917 53.8952 149.867L57.9718 152.21L61.0956 151.499L63.2315 152.737L63.3487 155.318L64.5201 155.986L67.4136 156.24L69.4909 157.411V158.868L72.1033 160.371H78.7414L81.1194 159V157.462L59.9007 146.751C60.8009 145.87 61.3267 144.675 61.369 143.416V141.854C61.0488 140.363 59.807 139.593 57.8273 138.449C53.0986 135.716 45.4374 135.716 40.7086 138.449C38.5688 139.699 37.3622 140.269 37.1475 141.874ZM43.6451 140.089C44.3966 139.708 45.2273 139.51 46.0699 139.51C46.9126 139.51 47.7433 139.708 48.4948 140.089C49.8342 140.87 49.8342 142.116 48.4948 142.889C47.7433 143.27 46.9126 143.469 46.0699 143.469C45.2273 143.469 44.3966 143.27 43.6451 142.889C42.3057 142.132 42.3057 140.862 43.6451 140.089Z" fill="black"/>
<path d="M40.693 146.817C44.262 148.879 49.5023 149.383 53.8952 148.329L57.9718 150.671L61.0956 149.965L63.2316 151.199L63.3487 153.784L64.5201 154.447L67.4136 154.701L69.6706 155.958L69.491 157.317L72.1033 158.825H78.7414L81.1195 157.454L59.9008 145.201C62.3998 142.549 61.7126 139.164 57.8273 136.923C53.0986 134.189 45.4374 134.189 40.7087 136.923C35.9799 139.656 35.9643 144.084 40.693 146.817ZM43.6451 138.551C44.3966 138.17 45.2273 137.971 46.0699 137.971C46.9126 137.971 47.7433 138.17 48.4948 138.551C49.8342 139.332 49.8342 140.577 48.4948 141.351C47.7433 141.732 46.9126 141.93 46.0699 141.93C45.2273 141.93 44.3966 141.732 43.6451 141.351C42.3057 140.57 42.3057 139.32 43.6451 138.547V138.551Z" fill="#407BFF"/>
<path opacity="0.3" d="M49.2519 147.52C46.2491 147.52 43.4493 146.856 41.3642 145.654C39.5367 144.599 38.4863 143.221 38.4863 141.874C38.4863 140.527 39.5367 139.141 41.3642 138.09C43.4493 136.887 46.2491 136.224 49.2519 136.224C52.2547 136.224 55.0544 136.887 57.1396 138.09C58.967 139.148 60.0174 140.523 60.0174 141.874C60.0174 143.225 58.967 144.607 57.1396 145.654C55.0544 146.856 52.2547 147.52 49.2519 147.52ZM49.2519 136.762C46.3428 136.762 43.6368 137.399 41.6297 138.555C39.9741 139.511 39.0252 140.722 39.0252 141.874C39.0252 143.026 39.9741 144.217 41.6297 145.189C43.6368 146.36 46.3428 146.985 49.2519 146.985C52.1609 146.985 54.867 146.345 56.874 145.189C58.5297 144.232 59.4785 143.022 59.4785 141.874C59.4785 140.726 58.5297 139.531 56.874 138.555C54.867 137.399 52.1609 136.762 49.2519 136.762Z" fill="black"/>
<path opacity="0.1" d="M44.8945 148.379V149.941C47.8624 150.586 50.9365 150.565 53.8951 149.879V148.34C50.9345 149.017 47.8609 149.03 44.8945 148.379Z" fill="black"/>
<path opacity="0.1" d="M57.9717 150.679V152.222L61.1033 151.511V149.972L57.9717 150.679Z" fill="black"/>
<path opacity="0.1" d="M63.2393 151.206V152.749L63.3564 155.33V153.791L63.2393 151.206Z" fill="black"/>
<path opacity="0.1" d="M64.5088 154.455V155.998L67.4022 156.251V154.709L64.5088 154.455Z" fill="black"/>
<path opacity="0.1" d="M78.7261 158.832H72.0918V160.375H78.7261V158.832Z" fill="black"/>
<path opacity="0.15" d="M81.1036 157.458V159L78.7256 160.371V158.832L79.7643 158.231V158.895L80.3422 158.563V157.891L81.1036 157.458Z" fill="black"/>
<path d="M80.3426 157.891L79.7646 158.231V158.895L80.3426 158.563V157.891Z" fill="#407BFF"/>
<path opacity="0.15" d="M80.3425 157.891V158.563L58.5811 145.997L59.1551 145.661L80.3425 157.891Z" fill="black"/>
<path opacity="0.15" d="M59.1551 145.661V146.333L58.5811 145.997L59.1551 145.661Z" fill="black"/>
<path d="M153.748 100.178C154.026 90.026 153.21 87.5699 150.5 85.7073L149.453 91.5996C149.453 91.5996 150.687 98.5463 150.554 100.858C150.437 102.892 150.238 105.434 149.773 107.074C149.685 107.365 149.493 107.614 149.234 107.773C148.672 108.171 148.171 108.648 147.747 109.191C147.356 109.616 146.997 109.722 147.048 109.858C147.127 110.007 147.259 110.121 147.419 110.177C147.578 110.232 147.752 110.226 147.907 110.159C148.253 110.024 148.581 109.846 148.883 109.628C148.646 110.253 148.308 110.834 147.883 111.35C146.915 112.522 146.872 113.263 148.824 113.283C150.051 113.283 151.027 112.537 151.948 109.843C152.307 108.856 152.594 107.845 152.807 106.817C153.256 104.15 153.705 101.815 153.748 100.178Z" fill="#B16668"/>
<path d="M148.224 84.9341C149.056 84.7867 149.913 84.9134 150.668 85.295C151.422 85.6766 152.032 86.2926 152.406 87.0505C153.542 89.0771 153.819 92.5679 153.968 96.0315C153.968 96.0315 151.715 97.9175 149.012 96.9921L148.224 84.9341Z" fill="#407BFF"/>
<path opacity="0.7" d="M148.224 84.9341C149.056 84.7867 149.913 84.9134 150.668 85.295C151.422 85.6766 152.032 86.2926 152.406 87.0505C153.542 89.0771 153.819 92.5679 153.968 96.0315C153.968 96.0315 151.715 97.9175 149.012 96.9921L148.224 84.9341Z" fill="black"/>
<path d="M152.026 140.874C152.229 140.952 152.28 141.343 152.311 142.12C152.335 142.706 152.464 143.733 151.773 143.94C151.081 144.147 150.074 144.037 149.633 143.483C149.099 142.74 148.528 142.025 147.922 141.339C147.243 140.609 146.505 139.922 146.228 138.895C145.982 137.969 146.189 137.567 146.821 137.298C147.692 136.907 149.059 138.137 149.742 138.328C150.328 138.492 151.819 140.796 152.026 140.874Z" fill="#263238"/>
<path d="M152.026 140.152V141.109C151.668 141.337 151.254 141.464 150.828 141.475C150.403 141.486 149.983 141.381 149.613 141.171C149.57 141.081 149.363 139.808 149.363 139.808L152.026 140.152Z" fill="#B16668"/>
<path d="M144.295 146.372C144.463 146.885 144.604 147.407 144.717 147.934C144.834 148.512 145.002 149.496 144.803 149.91C144.604 150.324 143.811 150.625 142.589 150.617C141.808 150.617 140.566 151.148 139.723 151.62C138.879 152.093 137.036 152.3 136.111 152.19C135.025 152.062 133.901 151.433 133.725 150.984C133.549 150.535 133.78 150.066 136.345 148.973C136.369 148.973 139.906 147.801 141.144 146.447L144.295 146.372Z" fill="#263238"/>
<path d="M144.295 145.341V146.454C144.295 146.845 143.823 147.462 142.585 147.419C141.718 147.388 141.109 147.153 141.144 146.439V145.404L144.295 145.341Z" fill="#B16668"/>
<path d="M152.647 127.489C152.435 125.799 152.057 124.134 151.519 122.518C151.519 122.518 151.859 118.223 152.023 114.165C152.198 109.773 152.023 104.255 152.097 103.158C152.097 103.158 137.926 100.292 137.673 105.368C137.419 110.444 138.235 123.365 138.403 125.595C138.571 127.824 138.953 129.8 139.414 133.404C139.875 137.009 141.144 145.396 141.144 145.396C141.634 145.645 142.178 145.77 142.727 145.759C143.277 145.748 143.815 145.602 144.295 145.334C144.295 145.334 145.295 135.181 145.189 132.608C145.108 130.702 144.78 128.814 144.213 126.993C144.213 126.993 144.483 122.807 144.721 119.183C144.959 115.559 145.209 113.791 145.263 112.209L145.568 112.057C145.568 112.057 145.88 118.34 146.048 120.569C146.216 122.799 146.568 124.935 147.22 129.078C147.782 132.674 149.449 140.277 149.449 140.277C151.066 141.152 152.034 140.16 152.034 140.16C152.034 140.16 153.081 130.609 152.647 127.489Z" fill="#37474F"/>
<path d="M145.264 112.201C145.264 112.201 148.7 110.503 150.418 108.98C150.418 108.98 148.821 111.229 146.724 112.229C146.724 112.229 145.978 120.038 145.982 119.874L145.549 112.19L145.264 112.201Z" fill="#263238"/>
<path d="M142.202 83.3292L143.042 87.9447L147.212 87.6362L146.337 82.4077L142.202 83.3292Z" fill="#B16668"/>
<path d="M151.613 87.3005C151.203 86.047 149.61 84.6803 148.017 84.9576C145.652 85.3657 143.322 85.9545 141.047 86.7186C139.59 87.238 138.259 88.4992 138.138 93.2982C138.138 93.2982 137.649 104.482 137.642 106.645C140.686 107.839 144.001 108.166 147.22 107.59C151.601 106.633 152.132 104.814 152.132 104.814C152.132 104.814 152.187 96.7696 152.054 93.2982C151.937 90.3462 151.898 88.1634 151.613 87.3005Z" fill="#407BFF"/>
<g opacity="0.15">
<path d="M151.613 87.3005C151.203 86.047 149.61 84.6803 148.017 84.9576C145.652 85.3657 143.322 85.9545 141.047 86.7186C139.59 87.238 138.259 88.4992 138.138 93.2982C138.138 93.2982 137.649 104.482 137.642 106.645C140.686 107.839 144.001 108.166 147.22 107.59C151.601 106.633 152.132 104.814 152.132 104.814C152.132 104.814 152.187 96.7696 152.054 93.2982C151.937 90.3462 151.898 88.1634 151.613 87.3005Z" fill="black"/>
</g>
<path d="M138.988 77.7024C138.988 77.7024 137.93 79.3893 138.059 79.5494C138.188 79.7095 138.996 79.8383 138.996 79.8383L138.988 77.7024Z" fill="#9A4A4D"/>
<path d="M141.921 73.0518C139.719 73.5672 139.102 74.5551 138.973 78.0812C138.837 81.7595 139.239 82.9075 139.731 83.3917C140.067 83.7197 141.878 83.7392 142.788 83.4659C143.925 83.1262 146.49 82.15 147.658 80.2757C149.032 78.0655 149.341 75.1096 147.79 73.9343C145.604 72.2786 142.82 72.8409 141.921 73.0518Z" fill="#B16668"/>
<path d="M138.996 73.9694C139.502 74.7063 140.216 75.2759 141.046 75.6055C141.468 76.0858 141.238 77.9484 141.98 78.2608C141.98 78.2608 142.3 76.8941 143.448 77.0425C144.596 77.1909 144.795 78.6513 144.088 79.5611C143.381 80.4709 142.698 80.1429 142.698 80.1429C142.698 80.1429 142.776 82.0953 143.663 83.1652C143.663 83.1652 144.647 83.462 146.443 83.0364C147.544 82.7748 149.078 81.3573 149.703 79.8774C151.027 76.7535 151.058 73.9538 149.063 73.1611C148.817 71.7359 147.677 71.1228 146.388 70.8573C143.612 70.2833 141.823 72.0287 139.687 71.8647C138.465 71.7788 138.239 72.6691 138.996 73.9694Z" fill="#263238"/>
<path d="M149.106 73.6375L150.414 72.8292C150.372 72.7231 150.307 72.6274 150.224 72.549C150.141 72.4706 150.042 72.4114 149.934 72.3755C149.826 72.3396 149.711 72.3278 149.597 72.3411C149.484 72.3544 149.375 72.3924 149.278 72.4524C149.181 72.5124 149.098 72.593 149.035 72.6885C148.973 72.7839 148.932 72.8919 148.915 73.0049C148.899 73.1179 148.908 73.2331 148.941 73.3424C148.974 73.4517 149.03 73.5524 149.106 73.6375Z" fill="#263238"/>
<path d="M123.412 95.028C124.096 95.3326 132.175 101.299 133.432 100.604C134.689 99.909 141.152 92.3611 141.152 92.3611C141.698 91.5178 141.988 90.5347 141.988 89.5301C141.988 88.5255 141.698 87.5424 141.152 86.6991C141.152 86.6991 139.082 87.0896 137.997 88.7218C136.911 90.354 132.233 96.2307 132.233 96.2307C131.077 95.6528 129.924 95.0671 128.774 94.4736C127.829 93.9816 126.88 93.4935 125.954 92.9663C125.694 92.8457 125.449 92.695 125.224 92.5173C124.767 92.0643 124.834 90.9553 124.857 90.3774C124.857 90.1002 124.857 89.8229 124.896 89.5457C124.935 89.206 125.002 88.3743 124.388 88.6398C124.272 88.6951 124.172 88.7783 124.096 88.8819C124.001 89.009 123.928 89.1499 123.877 89.2997C123.764 89.6589 123.799 90.0533 123.693 90.4165C123.681 90.4699 123.655 90.5195 123.619 90.5609C123.565 90.6033 123.497 90.6241 123.428 90.6195C122.538 90.5922 121.694 89.3426 121.284 88.6671C121.142 88.345 120.907 88.0729 120.609 87.8862C120.124 87.6558 119.539 87.9838 119.222 88.4211C118.841 88.996 118.686 89.6911 118.785 90.3735C118.868 91.3076 119.283 92.1808 119.957 92.8335C120.974 93.7581 122.143 94.5004 123.412 95.028Z" fill="#B16668"/>
<path d="M141.827 86.457C140.937 86.5586 139.457 86.6249 138.004 88.2689C136.294 90.1978 134.064 93.3217 134.064 93.3217C134.292 94.2456 134.782 95.0841 135.475 95.7366C136.167 96.389 137.033 96.8277 137.969 97C137.969 97 141.027 93.8762 141.874 92.1424C142.721 90.4087 142.862 87.6207 141.827 86.457Z" fill="#407BFF"/>
<path opacity="0.7" d="M141.827 86.457C140.937 86.5586 139.457 86.6249 138.004 88.2689C136.294 90.1978 134.064 93.3217 134.064 93.3217C134.292 94.2456 134.782 95.0841 135.475 95.7366C136.167 96.389 137.033 96.8277 137.969 97C137.969 97 141.027 93.8762 141.874 92.1424C142.721 90.4087 142.862 87.6207 141.827 86.457Z" fill="black"/>
</svg>
