<svg width="264" height="197" viewBox="0 0 264 197" fill="none" xmlns="http://www.w3.org/2000/svg">
<path d="M263.669 172.65H0V172.782H263.669V172.65Z" fill="#EBEBEB"/>
<path d="M237.25 181.135H219.784V181.267H237.25V181.135Z" fill="#EBEBEB"/>
<path d="M174.666 182.57H170.083V182.701H174.666V182.57Z" fill="#EBEBEB"/>
<path d="M219.257 176.242H209.138V176.373H219.257V176.242Z" fill="#EBEBEB"/>
<path d="M50.4398 177.127H27.6641V177.259H50.4398V177.127Z" fill="#EBEBEB"/>
<path d="M58.4767 177.127H55.1387V177.259H58.4767V177.127Z" fill="#EBEBEB"/>
<path d="M118.731 179.353H69.3301V179.485H118.731V179.353Z" fill="#EBEBEB"/>
<path d="M124.979 149.131H23.1552C22.3576 149.13 21.593 148.812 21.0295 148.247C20.4659 147.683 20.1494 146.918 20.1494 146.12V2.98473C20.1564 2.19163 20.4759 1.43329 21.0387 0.874441C21.6015 0.31559 22.3621 0.00135863 23.1552 0H124.979C125.777 0 126.543 0.31724 127.108 0.881931C127.673 1.44662 127.99 2.21251 127.99 3.0111V146.12C127.99 146.919 127.673 147.685 127.108 148.249C126.543 148.814 125.777 149.131 124.979 149.131ZM23.1552 0.105468C22.3925 0.106865 21.6615 0.41083 21.1227 0.950646C20.5839 1.49046 20.2812 2.22202 20.2812 2.98473V146.12C20.2812 146.883 20.5839 147.614 21.1227 148.154C21.6615 148.694 22.3925 148.998 23.1552 148.999H124.979C125.742 148.998 126.474 148.694 127.013 148.154C127.553 147.615 127.857 146.883 127.858 146.12V2.98473C127.857 2.22153 127.553 1.48999 127.013 0.950324C126.474 0.410659 125.742 0.106862 124.979 0.105468H23.1552Z" fill="#EBEBEB"/>
<path d="M239.049 149.131H137.22C136.422 149.13 135.657 148.812 135.092 148.248C134.528 147.683 134.21 146.918 134.209 146.12V2.98473C134.217 2.19115 134.538 1.43282 135.102 0.874111C135.665 0.315405 136.426 0.00134381 137.22 0H239.049C239.841 0.00274453 240.6 0.317589 241.162 0.876292C241.724 1.435 242.043 2.19254 242.05 2.98473V146.12C242.05 146.917 241.734 147.681 241.171 148.245C240.609 148.81 239.846 149.128 239.049 149.131ZM137.22 0.105468C136.457 0.106862 135.725 0.410659 135.186 0.950324C134.646 1.48999 134.342 2.22153 134.341 2.98473V146.12C134.342 146.883 134.646 147.615 135.186 148.154C135.725 148.694 136.457 148.998 137.22 148.999H239.049C239.812 148.998 240.544 148.694 241.083 148.154C241.623 147.615 241.927 146.883 241.928 146.12V2.98473C241.927 2.22153 241.623 1.48999 241.083 0.950324C240.544 0.410659 239.812 0.106862 239.049 0.105468H137.22Z" fill="#EBEBEB"/>
<path d="M151.6 110.303H75.0986V158.966H151.6V110.303Z" fill="#EBEBEB"/>
<path d="M151.6 110.303H75.0986V113.599H151.6V110.303Z" fill="#E0E0E0"/>
<path d="M149.469 112.945C150.016 112.945 150.46 112.501 150.46 111.954C150.46 111.406 150.016 110.962 149.469 110.962C148.921 110.962 148.478 111.406 148.478 111.954C148.478 112.501 148.921 112.945 149.469 112.945Z" fill="#FAFAFA"/>
<path d="M146.168 112.945C146.716 112.945 147.16 112.501 147.16 111.954C147.16 111.406 146.716 110.962 146.168 110.962C145.621 110.962 145.177 111.406 145.177 111.954C145.177 112.501 145.621 112.945 146.168 112.945Z" fill="#FAFAFA"/>
<path d="M142.866 112.945C143.414 112.945 143.858 112.501 143.858 111.954C143.858 111.406 143.414 110.962 142.866 110.962C142.319 110.962 141.875 111.406 141.875 111.954C141.875 112.501 142.319 112.945 142.866 112.945Z" fill="#FAFAFA"/>
<path d="M194.33 123.903H117.829V172.566H194.33V123.903Z" fill="#F5F5F5"/>
<path d="M194.33 123.903H117.829V127.199H194.33V123.903Z" fill="#E0E0E0"/>
<path d="M193.191 125.549C193.191 125.745 193.133 125.936 193.024 126.099C192.915 126.262 192.76 126.39 192.579 126.465C192.398 126.54 192.198 126.559 192.006 126.521C191.814 126.483 191.637 126.388 191.498 126.25C191.36 126.111 191.265 125.934 191.227 125.742C191.189 125.55 191.208 125.35 191.283 125.169C191.359 124.988 191.486 124.833 191.649 124.724C191.812 124.615 192.003 124.557 192.199 124.557C192.462 124.557 192.714 124.662 192.9 124.848C193.086 125.034 193.191 125.286 193.191 125.549Z" fill="#FAFAFA"/>
<path d="M189.89 125.549C189.89 125.745 189.832 125.936 189.723 126.099C189.614 126.262 189.459 126.39 189.278 126.465C189.097 126.54 188.898 126.559 188.705 126.521C188.513 126.483 188.336 126.388 188.198 126.25C188.059 126.111 187.965 125.934 187.926 125.742C187.888 125.55 187.908 125.35 187.983 125.169C188.058 124.988 188.185 124.833 188.348 124.724C188.511 124.615 188.703 124.557 188.899 124.557C189.162 124.557 189.414 124.662 189.6 124.848C189.786 125.034 189.89 125.286 189.89 125.549Z" fill="#FAFAFA"/>
<path d="M186.588 125.548C186.588 125.746 186.529 125.938 186.419 126.102C186.309 126.265 186.153 126.392 185.97 126.467C185.787 126.541 185.587 126.559 185.394 126.518C185.201 126.478 185.024 126.381 184.886 126.24C184.749 126.098 184.657 125.919 184.621 125.725C184.586 125.531 184.61 125.331 184.689 125.15C184.768 124.97 184.899 124.817 185.065 124.711C185.232 124.606 185.426 124.552 185.623 124.557C185.882 124.564 186.127 124.671 186.307 124.857C186.488 125.042 186.588 125.29 186.588 125.548Z" fill="#FAFAFA"/>
<path d="M139.861 16.8168H139.671C139.756 16.3628 139.8 15.9022 139.803 15.4404C139.802 13.4274 139.001 11.4973 137.577 10.0743C136.153 8.65136 134.222 7.85203 132.209 7.85203H132.151C131.631 6.9557 130.879 6.21526 129.976 5.70775C129.072 5.20024 128.048 4.94421 127.012 4.96628C125.976 4.98835 124.964 5.28773 124.083 5.83326C123.201 6.3788 122.482 7.15055 122 8.06825C121.472 7.92654 120.928 7.85387 120.381 7.85203C118.73 7.85226 117.143 8.49245 115.955 9.63809C114.766 10.7837 114.067 12.3456 114.006 13.9955C113.038 14.7257 112.324 15.7406 111.963 16.8976C111.602 18.0547 111.612 19.2959 111.992 20.4467C112.373 21.5975 113.104 22.6003 114.084 23.314C115.064 24.0278 116.242 24.4168 117.455 24.4263C117.922 24.4253 118.388 24.3668 118.841 24.2522H138.722C139.091 24.3668 139.475 24.4255 139.861 24.4263C140.871 24.4263 141.839 24.0251 142.553 23.3111C143.267 22.5971 143.668 21.6287 143.668 20.6189C143.668 19.6091 143.267 18.6407 142.553 17.9267C141.839 17.2126 140.871 16.8115 139.861 16.8115V16.8168Z" fill="#EBEBEB"/>
<path d="M200.753 31.7826H200.606C200.672 31.4349 200.705 31.0819 200.706 30.728C200.706 29.1895 200.095 27.7141 199.007 26.6262C197.919 25.5384 196.444 24.9272 194.905 24.9272H194.863C194.466 24.2389 193.891 23.67 193.199 23.2798C192.507 22.8896 191.723 22.6926 190.928 22.7093C190.134 22.726 189.358 22.9558 188.683 23.3748C188.008 23.7937 187.458 24.3863 187.09 25.0907C186.382 24.8993 185.64 24.8706 184.919 25.007C184.199 25.1433 183.518 25.4411 182.929 25.878C182.34 26.3149 181.857 26.8795 181.518 27.5295C181.178 28.1795 180.99 28.898 180.968 29.6311C180.218 30.1848 179.662 30.9612 179.379 31.8496C179.096 32.7379 179.102 33.6929 179.394 34.5781C179.686 35.4633 180.251 36.2335 181.007 36.7789C181.763 37.3243 182.672 37.6169 183.604 37.615C184.018 37.6137 184.43 37.5552 184.828 37.441H199.772C200.173 37.5859 200.6 37.6413 201.024 37.6034C201.449 37.5655 201.859 37.4351 202.228 37.2215C202.596 37.0078 202.913 36.7161 203.157 36.3668C203.4 36.0175 203.564 35.619 203.638 35.1995C203.711 34.7799 203.691 34.3495 203.58 33.9384C203.469 33.5272 203.269 33.1454 202.995 32.8197C202.72 32.4941 202.378 32.2325 201.992 32.0533C201.605 31.8741 201.184 31.7817 200.759 31.7826H200.753Z" fill="#EBEBEB"/>
<path d="M80.5189 36.0014H80.3713C80.4373 35.6537 80.4708 35.3006 80.4715 34.9467C80.4715 33.4083 79.8603 31.9328 78.7725 30.845C77.6846 29.7571 76.2092 29.146 74.6708 29.146H74.6286C74.2315 28.4577 73.6569 27.8887 72.9647 27.4985C72.2725 27.1084 71.4881 26.9113 70.6937 26.928C69.8993 26.9448 69.124 27.1746 68.4488 27.5935C67.7736 28.0124 67.2233 28.6051 66.8556 29.3095C66.1476 29.118 65.4055 29.0894 64.6848 29.2257C63.9642 29.3621 63.2838 29.6599 62.6947 30.0967C62.1056 30.5336 61.6231 31.0982 61.2834 31.7483C60.9436 32.3983 60.7556 33.1168 60.7332 33.8498C59.9832 34.4035 59.4272 35.1799 59.1447 36.0683C58.8621 36.9567 58.8674 37.9116 59.1597 38.7968C59.452 39.682 60.0165 40.4523 60.7726 40.9977C61.5287 41.543 62.4377 41.8356 63.3699 41.8337C63.7838 41.8325 64.1955 41.7739 64.5933 41.6597H79.5381C79.9385 41.8046 80.3659 41.8601 80.79 41.8221C81.2142 41.7842 81.6249 41.6539 81.9933 41.4402C82.3617 41.2266 82.6788 40.9348 82.9224 40.5855C83.166 40.2362 83.3301 39.8378 83.4032 39.4182C83.4764 38.9987 83.4567 38.5682 83.3457 38.1571C83.2346 37.746 83.0348 37.3642 82.7604 37.0385C82.486 36.7128 82.1436 36.4512 81.7573 36.272C81.371 36.0929 80.9501 36.0005 80.5242 36.0014H80.5189Z" fill="#EBEBEB"/>
<path d="M41.544 153.867L40.8796 152.928C40.7592 152.762 40.6004 152.627 40.4168 152.535C40.2332 152.443 40.0302 152.397 39.8249 152.401H35.1738C34.9803 152.397 34.7894 152.444 34.6194 152.537C34.4494 152.629 34.3061 152.764 34.2035 152.928L33.6762 153.851C33.5732 154.014 33.4298 154.149 33.2599 154.241C33.09 154.334 32.8992 154.381 32.7059 154.378H29.8899C29.7339 154.377 29.5793 154.408 29.4359 154.47C29.2926 154.531 29.1636 154.622 29.057 154.736C28.9505 154.85 28.8687 154.985 28.8169 155.132C28.7651 155.279 28.7444 155.435 28.7561 155.591L29.6578 171.195C29.6802 171.52 29.8237 171.825 30.06 172.05C30.2962 172.274 30.6081 172.402 30.934 172.408H53.0347C53.1907 172.409 53.3453 172.378 53.4886 172.316C53.632 172.255 53.761 172.164 53.8676 172.05C53.9741 171.936 54.0559 171.801 54.1076 171.654C54.1594 171.507 54.1802 171.35 54.1685 171.195L53.2615 155.623C53.2416 155.297 53.0996 154.992 52.8639 154.767C52.6282 154.542 52.3163 154.414 51.9906 154.41H42.5776C42.3748 154.407 42.1755 154.356 41.996 154.262C41.8164 154.167 41.6616 154.032 41.544 153.867Z" fill="#E0E0E0"/>
<path d="M54.2 155.897H33.9502C33.5361 155.902 33.1384 156.059 32.8323 156.338C32.5262 156.617 32.3329 156.999 32.2891 157.41L31.0709 170.926C31.0507 171.119 31.0718 171.315 31.133 171.5C31.1941 171.684 31.2938 171.854 31.4255 171.997C31.5571 172.14 31.7178 172.254 31.8967 172.33C32.0756 172.406 32.2686 172.444 32.4631 172.44H52.734C53.1483 172.433 53.5461 172.276 53.8528 171.997C54.1595 171.719 54.3542 171.338 54.4003 170.926L55.6185 157.41C55.64 157.214 55.6188 157.016 55.5565 156.829C55.4942 156.642 55.3921 156.471 55.2574 156.327C55.1226 156.184 54.9583 156.071 54.7758 155.996C54.5933 155.922 54.3968 155.888 54.2 155.897Z" fill="#F0F0F0"/>
<path d="M220.275 154.088L219.616 153.165C219.495 153 219.336 152.865 219.153 152.774C218.969 152.682 218.766 152.635 218.561 152.638H213.889C213.695 152.634 213.504 152.68 213.334 152.773C213.164 152.865 213.021 153 212.919 153.165L212.36 154.088C212.257 154.252 212.114 154.387 211.944 154.479C211.774 154.572 211.583 154.619 211.389 154.615H208.6C208.444 154.614 208.289 154.645 208.146 154.707C208.003 154.769 207.874 154.859 207.767 154.973C207.66 155.087 207.579 155.222 207.527 155.369C207.475 155.516 207.454 155.673 207.466 155.828L208.373 171.432C208.393 171.757 208.535 172.063 208.771 172.288C209.006 172.513 209.318 172.64 209.644 172.645H231.766C231.922 172.646 232.076 172.615 232.22 172.553C232.363 172.492 232.492 172.401 232.599 172.287C232.705 172.173 232.787 172.038 232.839 171.891C232.89 171.744 232.911 171.588 232.9 171.432L231.998 155.828C231.975 155.503 231.832 155.198 231.596 154.974C231.359 154.749 231.048 154.621 230.722 154.615H221.309C221.107 154.614 220.909 154.566 220.729 154.474C220.55 154.383 220.394 154.25 220.275 154.088Z" fill="#E0E0E0"/>
<path d="M232.93 156.118H212.686C212.271 156.124 211.873 156.28 211.566 156.559C211.259 156.838 211.065 157.22 211.02 157.632L209.801 171.147C209.781 171.341 209.802 171.536 209.863 171.721C209.925 171.906 210.024 172.075 210.156 172.218C210.288 172.362 210.448 172.475 210.627 172.551C210.806 172.628 210.999 172.665 211.194 172.661H231.438C231.852 172.655 232.25 172.497 232.557 172.219C232.864 171.94 233.058 171.559 233.104 171.147L234.323 157.632C234.344 157.438 234.323 157.242 234.262 157.057C234.202 156.872 234.102 156.702 233.97 156.559C233.838 156.416 233.677 156.302 233.498 156.226C233.319 156.15 233.125 156.113 232.93 156.118Z" fill="#F0F0F0"/>
<path d="M156.619 141.479L155.955 140.557C155.835 140.39 155.676 140.256 155.492 140.164C155.309 140.072 155.106 140.026 154.9 140.029H150.228C150.035 140.026 149.844 140.073 149.674 140.165C149.504 140.258 149.36 140.393 149.258 140.557L148.709 141.479C148.606 141.643 148.463 141.778 148.293 141.87C148.123 141.962 147.932 142.009 147.739 142.007H144.949C144.793 142.006 144.639 142.037 144.496 142.098C144.352 142.16 144.223 142.251 144.117 142.365C144.01 142.479 143.928 142.613 143.877 142.761C143.825 142.908 143.804 143.064 143.816 143.22L144.717 158.824C144.74 159.149 144.883 159.454 145.12 159.678C145.356 159.903 145.668 160.031 145.994 160.036H168.089C168.245 160.038 168.4 160.008 168.544 159.946C168.688 159.885 168.817 159.794 168.924 159.68C169.03 159.566 169.112 159.431 169.164 159.283C169.215 159.136 169.235 158.979 169.223 158.824L168.321 143.22C168.301 142.894 168.159 142.589 167.923 142.364C167.688 142.139 167.376 142.011 167.05 142.007H157.637C157.438 142.003 157.243 141.954 157.067 141.862C156.89 141.771 156.737 141.64 156.619 141.479Z" fill="#E0E0E0"/>
<path d="M169.277 143.51H149.027C148.613 143.516 148.216 143.674 147.91 143.952C147.604 144.231 147.411 144.612 147.366 145.023L146.148 158.539C146.127 158.732 146.147 158.928 146.208 159.113C146.269 159.298 146.368 159.468 146.5 159.612C146.632 159.755 146.793 159.868 146.972 159.944C147.152 160.02 147.345 160.057 147.54 160.052H167.784C168.199 160.046 168.596 159.889 168.903 159.61C169.21 159.331 169.405 158.951 169.451 158.539L170.648 145.018C170.669 144.826 170.649 144.633 170.589 144.449C170.53 144.266 170.432 144.097 170.302 143.955C170.172 143.812 170.014 143.699 169.837 143.622C169.66 143.545 169.469 143.507 169.277 143.51Z" fill="#F0F0F0"/>
<path d="M131.834 196.465C188.303 196.465 234.08 193.792 234.08 190.496C234.08 187.199 188.303 184.526 131.834 184.526C75.3657 184.526 29.5889 187.199 29.5889 190.496C29.5889 193.792 75.3657 196.465 131.834 196.465Z" fill="#F5F5F5"/>
<path d="M85.2328 37.9736H32.6678C31.9775 37.9736 31.418 38.5331 31.418 39.2234V131.064C31.418 131.755 31.9775 132.314 32.6678 132.314H85.2328C85.923 132.314 86.4826 131.755 86.4826 131.064V39.2234C86.4826 38.5331 85.923 37.9736 85.2328 37.9736Z" fill="#407BFF"/>
<path opacity="0.7" d="M85.2328 37.9736H32.6678C31.9775 37.9736 31.418 38.5331 31.418 39.2234V131.064C31.418 131.755 31.9775 132.314 32.6678 132.314H85.2328C85.923 132.314 86.4826 131.755 86.4826 131.064V39.2234C86.4826 38.5331 85.923 37.9736 85.2328 37.9736Z" fill="white"/>
<path d="M45.529 49.9283H35.1562V51.3363H45.529V49.9283Z" fill="#407BFF"/>
<path d="M45.529 53.0923H35.1562V54.5003H45.529V53.0923Z" fill="#407BFF"/>
<path d="M82.4645 49.9283H72.0918V51.3363H82.4645V49.9283Z" fill="#407BFF"/>
<path d="M63.1266 43.4156H52.7539V44.8236H63.1266V43.4156Z" fill="#407BFF"/>
<path d="M82.4637 40.9583H35.1562V42.3663H82.4637V40.9583Z" fill="#407BFF"/>
<path d="M82.4595 57.4798H40.4307V58.8878H82.4595V57.4798Z" fill="#407BFF"/>
<path d="M82.4637 60.2905H35.1562V61.6985H82.4637V60.2905Z" fill="#407BFF"/>
<path d="M82.4637 63.1064H35.1562V64.5144H82.4637V63.1064Z" fill="#407BFF"/>
<path d="M82.4637 65.9171H35.1562V67.3251H82.4637V65.9171Z" fill="#407BFF"/>
<path d="M77.1851 68.7279H35.1562V70.1359H77.1851V68.7279Z" fill="#407BFF"/>
<path d="M82.4595 73.8379H40.4307V75.2459H82.4595V73.8379Z" fill="#407BFF"/>
<path d="M82.4637 76.6486H35.1562V78.0566H82.4637V76.6486Z" fill="#407BFF"/>
<path d="M82.4637 79.4645H35.1562V80.8725H82.4637V79.4645Z" fill="#407BFF"/>
<path d="M82.4637 82.2752H35.1562V83.6832H82.4637V82.2752Z" fill="#407BFF"/>
<path d="M77.1851 85.0859H35.1562V86.4939H77.1851V85.0859Z" fill="#407BFF"/>
<path d="M82.4595 90.1958H40.4307V91.6038H82.4595V90.1958Z" fill="#407BFF"/>
<path d="M82.4637 93.0065H35.1562V94.4145H82.4637V93.0065Z" fill="#407BFF"/>
<path d="M82.4637 95.8225H35.1562V97.2305H82.4637V95.8225Z" fill="#407BFF"/>
<path d="M82.4637 98.6332H35.1562V100.041H82.4637V98.6332Z" fill="#407BFF"/>
<path d="M77.1851 101.444H35.1562V102.852H77.1851V101.444Z" fill="#407BFF"/>
<path d="M82.4595 107.081H40.4307V108.489H82.4595V107.081Z" fill="#407BFF"/>
<path d="M82.4637 109.892H35.1562V111.3H82.4637V109.892Z" fill="#407BFF"/>
<path d="M82.4637 112.708H35.1562V114.116H82.4637V112.708Z" fill="#407BFF"/>
<path d="M82.4637 115.519H35.1562V116.927H82.4637V115.519Z" fill="#407BFF"/>
<path d="M77.1851 118.329H35.1562V119.737H77.1851V118.329Z" fill="#407BFF"/>
<path d="M82.4645 126.44H72.0918V127.848H82.4645V126.44Z" fill="#407BFF"/>
<g opacity="0.2">
<path d="M45.529 49.9284H35.1562V51.3364H45.529V49.9284Z" fill="white"/>
<path d="M45.529 53.0923H35.1562V54.5003H45.529V53.0923Z" fill="white"/>
<path d="M82.4636 49.9284H72.0908V51.3364H82.4636V49.9284Z" fill="white"/>
<path d="M63.1257 43.4157H52.7529V44.8237H63.1257V43.4157Z" fill="white"/>
<path d="M82.4637 40.9583H35.1562V42.3663H82.4637V40.9583Z" fill="white"/>
<path d="M82.4585 57.4799H40.4297V58.8878H82.4585V57.4799Z" fill="white"/>
<path d="M82.4637 60.2905H35.1562V61.6985H82.4637V60.2905Z" fill="white"/>
<path d="M82.4637 63.1065H35.1562V64.5145H82.4637V63.1065Z" fill="white"/>
<path d="M82.4637 65.9172H35.1562V67.3252H82.4637V65.9172Z" fill="white"/>
<path d="M77.1851 68.728H35.1562V70.136H77.1851V68.728Z" fill="white"/>
<path d="M82.4585 73.8379H40.4297V75.2459H82.4585V73.8379Z" fill="white"/>
<path d="M82.4637 76.6486H35.1562V78.0566H82.4637V76.6486Z" fill="white"/>
<path d="M82.4637 79.4646H35.1562V80.8726H82.4637V79.4646Z" fill="white"/>
<path d="M82.4637 82.2753H35.1562V83.6833H82.4637V82.2753Z" fill="white"/>
<path d="M77.1851 85.0859H35.1562V86.4939H77.1851V85.0859Z" fill="white"/>
<path d="M82.4585 90.1959H40.4297V91.6039H82.4585V90.1959Z" fill="white"/>
<path d="M82.4637 93.0065H35.1562V94.4145H82.4637V93.0065Z" fill="white"/>
<path d="M82.4637 95.8226H35.1562V97.2306H82.4637V95.8226Z" fill="white"/>
<path d="M82.4637 98.6332H35.1562V100.041H82.4637V98.6332Z" fill="white"/>
<path d="M77.1851 101.444H35.1562V102.852H77.1851V101.444Z" fill="white"/>
<path d="M82.4585 107.081H40.4297V108.489H82.4585V107.081Z" fill="white"/>
<path d="M82.4637 109.892H35.1562V111.3H82.4637V109.892Z" fill="white"/>
<path d="M82.4637 112.708H35.1562V114.116H82.4637V112.708Z" fill="white"/>
<path d="M82.4637 115.519H35.1562V116.927H82.4637V115.519Z" fill="white"/>
<path d="M77.1851 118.329H35.1562V119.737H77.1851V118.329Z" fill="white"/>
<path d="M82.4636 126.44H72.0908V127.848H82.4636V126.44Z" fill="white"/>
</g>
<path opacity="0.1" d="M87.8696 110.899H58.5496C57.8594 110.899 57.2998 111.459 57.2998 112.149V136.085C57.2998 136.775 57.8594 137.335 58.5496 137.335H87.8696C88.5598 137.335 89.1194 136.775 89.1194 136.085V112.149C89.1194 111.459 88.5598 110.899 87.8696 110.899Z" fill="black"/>
<path d="M91.7934 115.904H62.4734C61.7832 115.904 61.2236 116.463 61.2236 117.153V141.089C61.2236 141.78 61.7832 142.339 62.4734 142.339H91.7934C92.4837 142.339 93.0432 141.78 93.0432 141.089V117.153C93.0432 116.463 92.4837 115.904 91.7934 115.904Z" fill="#407BFF"/>
<path opacity="0.3" d="M91.7934 115.904H62.4734C61.7832 115.904 61.2236 116.463 61.2236 117.153V141.089C61.2236 141.78 61.7832 142.339 62.4734 142.339H91.7934C92.4837 142.339 93.0432 141.78 93.0432 141.089V117.153C93.0432 116.463 92.4837 115.904 91.7934 115.904Z" fill="white"/>
<path d="M70.663 131.307H64.335V134.471H70.663V131.307Z" fill="#407BFF"/>
<path d="M89.1189 131.307H71.1895V134.471H89.1189V131.307Z" fill="#407BFF"/>
<path d="M70.663 127.088H64.335V130.78H70.663V127.088Z" fill="#407BFF"/>
<path d="M70.663 123.397H64.335V126.561H70.663V123.397Z" fill="#407BFF"/>
<path d="M89.1189 127.088H71.1895V130.78H89.1189V127.088Z" fill="#407BFF"/>
<path d="M89.1189 134.999H71.1895V138.69H89.1189V134.999Z" fill="#407BFF"/>
<path d="M89.1189 123.397H71.1895V126.561H89.1189V123.397Z" fill="#407BFF"/>
<path d="M70.663 134.999H64.335V138.69H70.663V134.999Z" fill="#407BFF"/>
<path d="M70.663 119.178H64.335V122.87H70.663V119.178Z" fill="#407BFF"/>
<path d="M89.1189 119.178H71.1895V122.87H89.1189V119.178Z" fill="#407BFF"/>
<path opacity="0.1" d="M96.977 65.1896H67.657C66.9668 65.1896 66.4072 65.7492 66.4072 66.4394V90.3753C66.4072 91.0655 66.9668 91.6251 67.657 91.6251H96.977C97.6672 91.6251 98.2268 91.0655 98.2268 90.3753V66.4394C98.2268 65.7492 97.6672 65.1896 96.977 65.1896Z" fill="black"/>
<path d="M102.868 63.9398H73.5476C72.8574 63.9398 72.2979 64.4993 72.2979 65.1895V89.1254C72.2979 89.8156 72.8574 90.3752 73.5476 90.3752H102.868C103.558 90.3752 104.117 89.8156 104.117 89.1254V65.1895C104.117 64.4993 103.558 63.9398 102.868 63.9398Z" fill="#407BFF"/>
<path opacity="0.3" d="M102.868 63.9398H73.5476C72.8574 63.9398 72.2979 64.4993 72.2979 65.1895V89.1254C72.2979 89.8156 72.8574 90.3752 73.5476 90.3752H102.868C103.558 90.3752 104.117 89.8156 104.117 89.1254V65.1895C104.117 64.4993 103.558 63.9398 102.868 63.9398Z" fill="white"/>
<path d="M100.721 67.4993H92.8105V71.1906H100.721V67.4993Z" fill="#407BFF"/>
<path d="M92.2831 67.4993H84.373V71.1906H92.2831V67.4993Z" fill="#407BFF"/>
<path d="M92.2831 71.1907H84.373V87.0108H92.2831V71.1907Z" fill="#407BFF"/>
<path d="M100.721 71.1907H92.8105V87.0108H100.721V71.1907Z" fill="#407BFF"/>
<path d="M83.8456 67.4993H75.9355V71.1906H83.8456V67.4993Z" fill="#407BFF"/>
<path d="M83.8456 71.1907H75.9355V87.0108H83.8456V71.1907Z" fill="#407BFF"/>
<path opacity="0.1" d="M106.944 92.9327H77.6238C76.9336 92.9327 76.374 93.4923 76.374 94.1825V118.118C76.374 118.809 76.9336 119.368 77.6238 119.368H106.944C107.634 119.368 108.194 118.809 108.194 118.118V94.1825C108.194 93.4923 107.634 92.9327 106.944 92.9327Z" fill="black"/>
<path d="M117.632 91.2401H88.3123C87.622 91.2401 87.0625 91.7997 87.0625 92.4899V116.426C87.0625 117.116 87.622 117.676 88.3123 117.676H117.632C118.323 117.676 118.882 117.116 118.882 116.426V92.4899C118.882 91.7997 118.323 91.2401 117.632 91.2401Z" fill="#407BFF"/>
<path opacity="0.3" d="M117.632 91.2401H88.3123C87.622 91.2401 87.0625 91.7997 87.0625 92.4899V116.426C87.0625 117.116 87.622 117.676 88.3123 117.676H117.632C118.323 117.676 118.882 117.116 118.882 116.426V92.4899C118.882 91.7997 118.323 91.2401 117.632 91.2401Z" fill="white"/>
<path d="M115.486 94.9209H103.357V103.886H115.486V94.9209Z" fill="#407BFF"/>
<path d="M102.83 94.9209H90.7012V103.886H102.83V94.9209Z" fill="#407BFF"/>
<path d="M102.83 104.413H90.7012V114.432H102.83V104.413Z" fill="#407BFF"/>
<path d="M115.486 104.413H103.357V114.432H115.486V104.413Z" fill="#407BFF"/>
<path opacity="0.2" d="M118.651 92.4899V110.214H107.719C107.412 110.223 107.106 110.169 106.822 110.052C106.538 109.936 106.281 109.762 106.069 109.54C105.856 109.318 105.693 109.054 105.589 108.765C105.486 108.476 105.444 108.168 105.467 107.862V91.2296H117.633C118.324 91.2296 118.651 91.7991 118.651 92.4899Z" fill="black"/>
<path opacity="0.1" d="M107.608 40.3361H78.2879C77.5976 40.3361 77.0381 40.8957 77.0381 41.5859V65.5218C77.0381 66.212 77.5976 66.7716 78.2879 66.7716H107.608C108.298 66.7716 108.858 66.212 108.858 65.5218V41.5859C108.858 40.8957 108.298 40.3361 107.608 40.3361Z" fill="black"/>
<path d="M112.886 35.5848H83.5662C82.876 35.5848 82.3164 36.1444 82.3164 36.8346V60.7705C82.3164 61.4607 82.876 62.0203 83.5662 62.0203H112.886C113.576 62.0203 114.136 61.4607 114.136 60.7705V36.8346C114.136 36.1444 113.576 35.5848 112.886 35.5848Z" fill="#407BFF"/>
<path opacity="0.3" d="M112.886 35.5848H83.5662C82.876 35.5848 82.3164 36.1444 82.3164 36.8346V60.7705C82.3164 61.4607 82.876 62.0203 83.5662 62.0203H112.886C113.576 62.0203 114.136 61.4607 114.136 60.7705V36.8346C114.136 36.1444 113.576 35.5848 112.886 35.5848Z" fill="white"/>
<path d="M104.939 39.023H94.9199V41.6597H104.939V39.023Z" fill="#407BFF"/>
<path d="M99.666 42.1871H94.9199V58.5346H99.666V42.1871Z" fill="#407BFF"/>
<path d="M110.74 39.023H105.467V41.6597H110.74V39.023Z" fill="#407BFF"/>
<path d="M110.74 42.1871H105.467V58.5346H110.74V42.1871Z" fill="#407BFF"/>
<path d="M104.939 42.1871H100.193V58.5346H104.939V42.1871Z" fill="#407BFF"/>
<path d="M94.3925 42.1871H85.9551V58.5346H94.3925V42.1871Z" fill="#407BFF"/>
<path d="M94.3925 39.023H85.9551V41.6597H94.3925V39.023Z" fill="#407BFF"/>
<path d="M200.436 97.3939H164.535C163.163 97.3939 162.051 98.5059 162.051 99.8777V135.779C162.051 137.151 163.163 138.263 164.535 138.263H200.436C201.807 138.263 202.919 137.151 202.919 135.779V99.8777C202.919 98.5059 201.807 97.3939 200.436 97.3939Z" fill="#407BFF"/>
<path opacity="0.25" d="M197.752 102.736H167.388V132.926H197.752V102.736Z" fill="white"/>
<path opacity="0.25" d="M167.388 132.889L175.118 126.535L177.644 128.57L185.649 121.81L189.583 125.68L197.752 118.825V132.889H167.388Z" fill="white"/>
<path opacity="0.25" d="M167.388 132.889L173.932 120.613L181.578 121.804L187.295 114.337L193.18 115.397L197.752 110.831V132.889H167.388Z" fill="white"/>
<path opacity="0.25" d="M167.388 132.889L182.485 131.022L187.379 128.575L192.652 129.103L197.752 126.561V132.889H167.388Z" fill="white"/>
<path opacity="0.2" d="M198.806 97.5575V101.776C198.778 102.466 198.491 103.121 198.002 103.609C197.514 104.097 196.86 104.384 196.17 104.413H166.639V116.795C166.605 117.46 166.308 118.085 165.813 118.532C165.319 118.979 164.668 119.211 164.002 119.178H161.893V99.8778C161.893 98.5067 163.158 97.5575 164.529 97.5575H198.806Z" fill="black"/>
<path d="M150.66 62.6899H114.759C113.387 62.6899 112.275 63.8019 112.275 65.1736V101.075C112.275 102.447 113.387 103.559 114.759 103.559H150.66C152.032 103.559 153.144 102.447 153.144 101.075V65.1736C153.144 63.8019 152.032 62.6899 150.66 62.6899Z" fill="#407BFF"/>
<path opacity="0.8" d="M137.903 66.956H127.351C127.098 66.956 126.893 67.1614 126.893 67.4148V73.3684C126.893 73.6218 127.098 73.8272 127.351 73.8272H137.903C138.157 73.8272 138.362 73.6218 138.362 73.3684V67.4148C138.362 67.1614 138.157 66.956 137.903 66.956Z" fill="white"/>
<path opacity="0.6" d="M129.851 81.7373H121.493C121.24 81.7373 121.034 81.9427 121.034 82.1961V86.5255C121.034 86.7789 121.24 86.9843 121.493 86.9843H129.851C130.105 86.9843 130.31 86.7789 130.31 86.5255V82.1961C130.31 81.9427 130.105 81.7373 129.851 81.7373Z" fill="white"/>
<path opacity="0.6" d="M143.926 81.7373H135.568C135.315 81.7373 135.109 81.9427 135.109 82.1961V86.5255C135.109 86.7789 135.315 86.9843 135.568 86.9843H143.926C144.18 86.9843 144.385 86.7789 144.385 86.5255V82.1961C144.385 81.9427 144.18 81.7373 143.926 81.7373Z" fill="white"/>
<path opacity="0.4" d="M135.273 92.8378H131.323C131.07 92.8378 130.864 93.0432 130.864 93.2965V96.8614C130.864 97.1147 131.07 97.3201 131.323 97.3201H135.273C135.526 97.3201 135.732 97.1147 135.732 96.8614V93.2965C135.732 93.0432 135.526 92.8378 135.273 92.8378Z" fill="white"/>
<path opacity="0.4" d="M141.452 92.8378H137.503C137.249 92.8378 137.044 93.0432 137.044 93.2965V96.8614C137.044 97.1147 137.249 97.3201 137.503 97.3201H141.452C141.706 97.3201 141.911 97.1147 141.911 96.8614V93.2965C141.911 93.0432 141.706 92.8378 141.452 92.8378Z" fill="white"/>
<path opacity="0.4" d="M147.638 92.8378H143.688C143.435 92.8378 143.229 93.0432 143.229 93.2965V96.8614C143.229 97.1147 143.435 97.3201 143.688 97.3201H147.638C147.891 97.3201 148.097 97.1147 148.097 96.8614V93.2965C148.097 93.0432 147.891 92.8378 147.638 92.8378Z" fill="white"/>
<path opacity="0.4" d="M120.966 92.8378H117.016C116.763 92.8378 116.558 93.0432 116.558 93.2965V96.8614C116.558 97.1147 116.763 97.3201 117.016 97.3201H120.966C121.22 97.3201 121.425 97.1147 121.425 96.8614V93.2965C121.425 93.0432 121.22 92.8378 120.966 92.8378Z" fill="white"/>
<path opacity="0.4" d="M127.673 92.8378H123.723C123.47 92.8378 123.265 93.0432 123.265 93.2965V96.8614C123.265 97.1147 123.47 97.3201 123.723 97.3201H127.673C127.927 97.3201 128.132 97.1147 128.132 96.8614V93.2965C128.132 93.0432 127.927 92.8378 127.673 92.8378Z" fill="white"/>
<g opacity="0.3">
<path d="M139.218 81.7372H139.745V78.0459H132.89V73.8271H132.362V78.0459H125.507V81.7372H126.034V78.5732H139.218V81.7372Z" fill="white"/>
<path d="M125.507 90.1746H118.651V92.8113H119.179V90.702H125.507V92.8113H126.034V87.0106H125.507V90.1746Z" fill="white"/>
<path d="M139.745 90.702V87.0106H139.218V90.702H132.89V92.8113H133.417V91.2293H139.218V92.8113H139.745V91.2293H145.546V92.8113H146.073V90.702H139.745Z" fill="white"/>
</g>
<path opacity="0.2" d="M152.927 65.1737V76.9913H123.961C123.265 76.9682 122.604 76.6841 122.109 76.1955C121.613 75.7069 121.32 75.0497 121.287 74.3546V62.7532H150.665C150.976 62.7508 151.285 62.8131 151.571 62.936C151.857 63.0589 152.114 63.2398 152.327 63.4673C152.54 63.6948 152.703 63.9638 152.806 64.2575C152.909 64.5512 152.951 64.8632 152.927 65.1737Z" fill="black"/>
<path d="M206.7 44.9238H170.799C169.427 44.9238 168.315 46.0358 168.315 47.4076V83.3087C168.315 84.6805 169.427 85.7925 170.799 85.7925H206.7C208.072 85.7925 209.184 84.6805 209.184 83.3087V47.4076C209.184 46.0358 208.072 44.9238 206.7 44.9238Z" fill="#407BFF"/>
<path opacity="0.25" d="M203.932 50.2605H173.568V80.4506H203.932V50.2605Z" fill="white"/>
<path opacity="0.35" d="M179.727 68.8176H176.668V76.6591H179.727V68.8176Z" fill="white"/>
<path opacity="0.35" d="M179.727 68.8176H176.668V80.4506H179.727V68.8176Z" fill="white"/>
<path opacity="0.35" d="M185.001 63.3227H181.942V74.8661H185.001V63.3227Z" fill="white"/>
<path opacity="0.35" d="M185.001 63.3227H181.942V80.4506H185.001V63.3227Z" fill="white"/>
<path opacity="0.35" d="M190.278 66.7029H187.22V75.9682H190.278V66.7029Z" fill="white"/>
<path opacity="0.35" d="M190.278 66.7029H187.22V80.4506H190.278V66.7029Z" fill="white"/>
<path opacity="0.35" d="M195.558 61.9568H192.499V74.4231H195.558V61.9568Z" fill="white"/>
<path opacity="0.35" d="M195.558 61.9568H192.499V80.4506H195.558V61.9568Z" fill="white"/>
<path opacity="0.35" d="M200.831 54.706H197.772V72.0554H200.831V54.706Z" fill="white"/>
<path opacity="0.35" d="M200.831 54.706H197.772V80.4506H200.831V54.706Z" fill="white"/>
<path opacity="0.2" d="M179.295 44.8237V67.1828C179.278 67.8421 179.001 68.4678 178.523 68.9226C178.046 69.3774 177.407 69.6241 176.748 69.6085H168.221V47.4024C168.235 46.724 168.511 46.0774 168.99 45.5971C169.47 45.1168 170.116 44.8398 170.794 44.8237H179.295Z" fill="black"/>
<path d="M172.998 16.8959H137.097C135.725 16.8959 134.613 18.0079 134.613 19.3796V55.2808C134.613 56.6525 135.725 57.7645 137.097 57.7645H172.998C174.37 57.7645 175.482 56.6525 175.482 55.2808V19.3796C175.482 18.0079 174.37 16.8959 172.998 16.8959Z" fill="#407BFF"/>
<path opacity="0.25" d="M168.282 39.479C169.467 32.1742 164.507 25.2912 157.202 24.1055C149.897 22.9197 143.014 27.8802 141.829 35.185C140.643 42.4898 145.603 49.3728 152.908 50.5585C160.213 51.7443 167.096 46.7838 168.282 39.479Z" fill="white"/>
<path opacity="0.25" d="M155.037 37.3302L168.22 39.8298C167.745 42.3271 166.569 44.6378 164.83 46.4919C163.091 48.3461 160.86 49.6673 158.399 50.3012C155.937 50.9352 153.345 50.8558 150.927 50.0722C148.509 49.2887 146.363 47.8334 144.741 45.8762C143.118 43.919 142.086 41.5408 141.765 39.019C141.443 36.4973 141.846 33.9361 142.925 31.6346C144.005 29.3331 145.717 27.3861 147.862 26.021C150.006 24.6559 152.495 23.9291 155.037 23.9253V37.3302Z" fill="white"/>
<path opacity="0.25" d="M155.037 37.3302V50.7299C151.529 50.6556 148.189 49.2085 145.736 46.6992C143.283 44.19 141.911 40.8188 141.916 37.3095C141.921 33.8002 143.302 30.4328 145.762 27.9303C148.222 25.4278 151.566 23.9899 155.074 23.9253L155.037 37.3302Z" fill="white"/>
<path opacity="0.25" d="M155.037 37.3301L147.976 25.9396C149.023 25.2869 150.158 24.7845 151.345 24.4473C152.531 24.1036 153.76 23.9261 154.994 23.9199L155.037 37.3301Z" fill="white"/>
<path d="M225.832 63.8078C225.832 63.8078 232.951 76.2846 233.478 79.2746C234.006 82.2646 227.414 101.381 227.414 101.381C227.414 101.381 228.864 106.411 227.282 107.26C225.7 108.109 222.937 109.818 222.536 108.368C222.135 106.918 222.536 102.135 222.536 102.135L223.728 101.117C223.728 101.117 227.947 81.1414 227.947 80.4506C227.947 79.7598 220.295 67.979 220.295 67.979L225.832 63.8078Z" fill="#E4897B"/>
<path d="M199.586 185.639L195.309 186.087L195.093 183.608L194.508 176.864L198.785 176.41L199.433 183.862L199.586 185.639Z" fill="#E4897B"/>
<path d="M220.933 185.096H216.788L216.751 184.157L216.746 184.041L216.535 178.029L216.53 177.908L216.445 175.604H220.595L220.933 185.096Z" fill="#E4897B"/>
<path opacity="0.2" d="M198.785 176.41L199.433 183.862L195.093 183.608L194.508 176.864L198.785 176.41Z" fill="black"/>
<path opacity="0.2" d="M220.906 184.568H220.901L216.751 184.041H216.746L216.529 178.24H216.535L220.69 178.572L220.901 184.384L220.906 184.568Z" fill="black"/>
<path d="M230.594 69.7826L223.459 74.6341L223.322 74.4601L218.992 68.8176L216.355 65.3583L220.274 54.7061C224.777 56.4252 230.594 69.7826 230.594 69.7826Z" fill="#263238"/>
<path opacity="0.2" d="M223.322 74.4601L218.992 68.8176L222.467 63.4862C222.467 63.4862 224.593 68.9916 223.322 74.4601Z" fill="black"/>
<path d="M216.207 184.848H221.243C221.326 184.847 221.406 184.875 221.471 184.927C221.535 184.979 221.58 185.052 221.597 185.133L222.414 188.824C222.431 188.913 222.428 189.006 222.406 189.094C222.383 189.182 222.341 189.264 222.284 189.335C222.226 189.405 222.153 189.462 222.071 189.501C221.989 189.541 221.899 189.561 221.808 189.562C220.178 189.536 218.992 189.436 216.946 189.436C215.685 189.436 211.883 189.567 210.143 189.567C208.403 189.567 208.176 187.848 208.888 187.69C212.083 186.994 214.488 186.029 215.511 185.111C215.7 184.937 215.95 184.842 216.207 184.848Z" fill="#263238"/>
<path d="M194.856 184.716H199.892C199.974 184.715 200.055 184.743 200.119 184.795C200.184 184.847 200.228 184.92 200.245 185.001L201.062 188.692C201.079 188.782 201.077 188.874 201.054 188.962C201.031 189.05 200.99 189.133 200.932 189.203C200.874 189.273 200.802 189.33 200.719 189.37C200.637 189.409 200.547 189.43 200.456 189.43C198.827 189.404 197.64 189.304 195.594 189.304C194.334 189.304 190.532 189.436 188.791 189.436C187.051 189.436 186.824 187.716 187.536 187.558C190.732 186.862 193.137 185.897 194.16 184.98C194.349 184.805 194.598 184.711 194.856 184.716Z" fill="#263238"/>
<path d="M194.118 182.986H200.198C200.198 182.986 199.703 130.648 206.278 112.972C206.742 118.814 207.265 124.874 207.776 129.925C208.092 133.053 208.414 135.726 208.715 137.788C210.629 150.971 215.454 183.513 215.454 183.513H221.482C221.482 183.513 220.764 152.327 220.058 139.375C219.272 125.311 218.935 94.3934 218.898 91.7567H196.887C194.793 102.831 189.425 147.127 194.118 182.986Z" fill="#407BFF"/>
<path opacity="0.6" d="M194.118 182.986H200.198C200.198 182.986 199.703 130.648 206.278 112.972C206.742 118.814 207.265 124.874 207.776 129.925C208.092 133.053 208.414 135.726 208.715 137.788C210.629 150.971 215.454 183.513 215.454 183.513H221.482C221.482 183.513 220.764 152.327 220.058 139.375C219.272 125.311 218.935 94.3934 218.898 91.7567H196.887C194.793 102.831 189.425 147.127 194.118 182.986Z" fill="white"/>
<path d="M204.87 45.2824C204.923 45.4828 204.981 45.6832 205.049 45.8677C205.545 47.2517 206.548 48.3957 207.855 49.0687C208.855 49.603 210.003 49.7954 211.122 49.6164C212.242 49.4374 213.273 48.8968 214.056 48.0773C216.134 45.9679 216.081 43.558 216.313 39.4606C216.385 38.5034 216.21 37.544 215.805 36.6736C215.4 35.8032 214.78 35.051 214.002 34.4884C213.224 33.9259 212.316 33.5719 211.362 33.4601C210.409 33.3483 209.443 33.4824 208.556 33.8497C204.533 35.4897 203.984 41.591 204.87 45.2824Z" fill="#E4897B"/>
<path opacity="0.2" d="M207.101 48.6047C207.34 48.7784 207.592 48.9335 207.855 49.0688C208.541 49.4329 209.3 49.6393 210.076 49.6731C210.853 49.7068 211.627 49.567 212.342 49.2639C212.16 48.7696 211.914 48.3015 211.609 47.8717C210.067 47.6787 208.502 47.9332 207.101 48.6047Z" fill="black"/>
<path d="M215.354 53.9202C213.334 55.7554 208.388 55.0751 208.388 55.0751C208.388 55.0751 205.297 54.2314 205.946 53.2663C207.765 52.9657 208.646 52.1167 209.01 51.0304C209.209 50.357 209.272 49.6507 209.194 48.9527C209.164 48.5635 209.113 48.1763 209.041 47.7926L215.153 43.2416C214.357 46.2527 213.376 51.7529 215.354 53.9202Z" fill="#E4897B"/>
<path d="M206.837 36.5919C206.88 36.708 206.774 36.9453 206.695 37.2142C206.548 37.7413 206.473 38.2859 206.473 38.8331C206.49 39.725 206.686 40.6044 207.048 41.4195C207.41 42.2346 207.932 42.9689 208.583 43.5792C209.04 45.2369 209.658 46.8459 210.429 48.3832C210.495 48.5421 210.6 48.6818 210.734 48.7893C210.916 48.8834 211.122 48.9185 211.325 48.8895L214.9 48.7682C215.005 48.7786 215.111 48.7661 215.21 48.7315C215.309 48.6969 215.4 48.641 215.475 48.5678C215.53 48.4653 215.574 48.3575 215.607 48.2461C215.929 47.4762 217.289 47.8401 217.759 47.1492C217.895 46.8363 217.989 46.5064 218.038 46.1684C218.333 45.3141 219.541 44.8711 219.499 43.9641C219.472 43.4368 218.971 42.9622 219.14 42.4559C219.309 41.9497 219.931 41.7915 220.195 41.338C220.458 40.8845 220.195 40.2833 219.905 39.8614C219.734 39.6615 219.606 39.4289 219.528 39.1778C219.45 38.9266 219.424 38.6622 219.451 38.4007C219.524 38.206 219.616 38.0188 219.725 37.8417C219.894 37.4856 219.95 37.0867 219.887 36.6979C219.824 36.309 219.645 35.9484 219.372 35.6638C219.123 35.4693 218.903 35.2403 218.718 34.9836C218.476 34.5248 218.681 33.9289 218.386 33.4701C218.091 33.0113 217.484 33.0271 216.968 33.0588C216.451 33.0904 215.839 33.0588 215.533 32.6685C215.312 32.368 215.322 31.9408 215.08 31.6613C214.732 31.2711 214.099 31.3766 213.608 31.5717C213.118 31.7668 212.58 32.0147 212.105 31.7984C211.773 31.6455 211.578 31.308 211.278 31.1076C211.065 30.9701 210.814 30.9036 210.561 30.9178C210.308 30.9321 210.066 31.0262 209.87 31.1867C209.606 31.4135 209.448 31.7563 209.147 31.9355C208.688 32.1173 208.177 32.1173 207.718 31.9355C207.49 31.8445 207.241 31.8174 206.998 31.8574C206.756 31.8974 206.529 32.0028 206.342 32.1623C205.899 32.6896 206.379 33.6283 205.925 34.1609C205.667 34.4668 205.192 34.509 204.913 34.7937C204.827 34.8969 204.768 35.0197 204.741 35.1512C204.714 35.2826 204.72 35.4187 204.759 35.5472C204.798 35.6757 204.868 35.7926 204.962 35.8875C205.057 35.9824 205.174 36.0523 205.303 36.091C205.461 36.1226 205.667 36.1332 205.725 36.2808C205.74 36.3467 205.751 36.4137 205.756 36.4812C205.814 36.6869 206.104 36.6974 206.284 36.6289C206.653 36.4865 206.8 36.497 206.837 36.5919Z" fill="#263238"/>
<path d="M209.432 41.8442C209.355 42.2302 209.192 42.594 208.955 42.9088C208.719 43.2236 208.415 43.4815 208.066 43.6636C207.233 44.0169 206.685 42.8409 206.806 41.6122C206.922 40.5153 207.486 38.9755 208.388 39.1812C209.29 39.3868 209.722 40.7421 209.432 41.8442Z" fill="#E4897B"/>
<path opacity="0.2" d="M206.278 112.945C206.742 118.788 207.264 124.863 207.776 129.915C208.525 122.622 209.442 117.422 209.442 117.422C209.442 117.422 210.302 116.716 212.664 112.945C215.027 109.175 212.664 102.135 212.664 102.135C212.738 108.674 206.278 112.945 206.278 112.945Z" fill="black"/>
<path d="M219.9 96.1494L194.762 94.9207C195.318 85.7644 196.434 76.6507 198.105 67.631C198.792 64.0077 199.672 60.4237 200.742 56.8944C201.286 55.1039 201.925 53.3437 202.656 51.621C202.656 51.621 218.281 52.9077 221.482 55.3704C224.683 57.8331 219.726 83.3193 219.9 96.1494Z" fill="#263238"/>
<path d="M206.79 52.0377C206.79 52.0377 209.179 50.1603 213.645 50.2605C218.112 50.3607 218.565 52.0377 218.565 52.0377C218.565 52.0377 223.486 54.4898 219.62 58.5345C215.755 62.5791 208.14 52.333 208.14 52.333L206.79 52.0377Z" fill="#263238"/>
<path opacity="0.25" d="M206.79 52.0377C206.79 52.0377 209.179 50.1603 213.645 50.2605C218.112 50.3607 218.565 52.0377 218.565 52.0377C218.565 52.0377 223.486 54.4898 219.62 58.5345C215.755 62.5791 208.14 52.333 208.14 52.333L206.79 52.0377Z" fill="white"/>
<path opacity="0.2" d="M203.051 57.2161C203.051 57.2161 201.97 64.3351 198.104 67.631C198.791 64.0077 199.672 60.4237 200.741 56.8944L203.051 57.2161Z" fill="black"/>
<path d="M199.828 51.7107C199.828 51.7107 184.214 48.5203 182.02 47.6819C179.826 46.8434 168.22 35.7482 168.22 35.7482L165.678 37.6677C165.678 37.6677 174.374 48.9528 178.724 52.2064C183.075 55.4601 198.278 60.3749 198.278 60.3749L199.828 51.7107Z" fill="#E4897B"/>
<path d="M203.088 51.7107L189.488 49.2269L189.14 58.6241L199.301 62.7531C199.301 62.7531 205.709 56.3249 203.088 51.7107Z" fill="#263238"/>
<path d="M168.22 35.7482C166.97 34.3192 162.419 31.2342 161.75 30.9706C161.08 30.7069 160.11 34.741 160.305 35.2684C160.5 35.7957 162.736 36.9137 163.864 37.0455C164.993 37.1773 166.195 38.3322 166.195 38.3322L168.22 35.7482Z" fill="#E4897B"/>
<path d="M188.75 48.8842L190.242 49.2269L189.562 58.7928L188.133 58.2708L188.75 48.8842Z" fill="#263238"/>
<path opacity="0.25" d="M188.75 48.8842L190.242 49.2269L189.562 58.7928L188.133 58.2708L188.75 48.8842Z" fill="white"/>
<path d="M222.536 74.555L230.594 69.097L231.148 70.4892L223.47 75.3196L222.536 74.555Z" fill="#263238"/>
<path opacity="0.25" d="M222.536 74.555L230.594 69.097L231.148 70.4892L223.47 75.3196L222.536 74.555Z" fill="white"/>
<path d="M193.432 181.272L193.732 182.986H200.915V181.404L193.432 181.272Z" fill="#407BFF"/>
<path d="M214.769 181.931L215.454 183.513H221.482L221.877 181.931H214.769Z" fill="#407BFF"/>
</svg>
